<svg width="370" height="239" viewBox="0 0 370 239" fill="none" xmlns="http://www.w3.org/2000/svg">
<g filter="url(#filter0_d_1_176)">
<path d="M111.198 24.5468C111.198 37.8016 100.45 48.547 87.1978 48.547C73.9431 48.547 63.1977 37.8016 63.1977 24.5468C63.1977 11.2921 73.9431 0.546676 87.1978 0.546676C100.45 0.546676 111.198 11.2921 111.198 24.5468Z" fill="white"/>
<path d="M237.599 24.5468C237.599 37.8016 226.853 48.547 213.599 48.547C200.347 48.547 189.599 37.8016 189.599 24.5468C189.599 11.2921 200.347 0.546676 213.599 0.546676C226.853 0.546676 237.599 11.2921 237.599 24.5468Z" fill="white"/>
<path d="M364 24.5468C364 37.8016 353.254 48.547 339.999 48.547C326.745 48.547 315.999 37.8016 315.999 24.5468C315.999 11.2921 326.745 0.546676 339.999 0.546676C353.254 0.546676 364 11.2921 364 24.5468Z" fill="white"/>
<path d="M237.599 150.948C237.599 164.2 226.853 174.948 213.599 174.948C200.347 174.948 189.599 164.2 189.599 150.948C189.599 137.693 200.347 126.947 213.599 126.947C226.853 126.947 237.599 137.693 237.599 150.948Z" fill="white"/>
<path d="M364 150.948C364 164.2 353.254 174.948 339.999 174.948C326.745 174.948 315.999 164.2 315.999 150.948C315.999 137.693 326.745 126.947 339.999 126.947C353.254 126.947 364 137.693 364 150.948Z" fill="white"/>
<path d="M174.398 24.5468C174.398 37.8016 163.653 48.547 150.398 48.547C137.146 48.547 126.398 37.8016 126.398 24.5468C126.398 11.2921 137.146 0.546676 150.398 0.546676C163.653 0.546676 174.398 11.2921 174.398 24.5468Z" fill="white"/>
<path d="M166.705 133.374C163.51 129.669 161.552 124.721 161.552 119.489C161.552 113.317 164.566 107.786 168.525 103.494V103.453C172.177 99.2406 174.4 93.7619 174.4 87.7512C174.4 74.4978 163.656 63.7524 150.4 63.7524C137.147 63.7524 126.399 74.4978 126.399 87.7512C126.399 93.5299 128.447 98.8299 131.847 102.973H131.827V102.997C135.319 106.863 140 112.759 140 119.489C140 124.918 136.603 130.119 133.738 133.702C129.221 138.065 126.399 144.174 126.399 150.953C126.399 164.205 137.147 174.953 150.4 174.953C163.656 174.953 174.4 164.205 174.4 150.953C174.4 144 171.429 137.757 166.705 133.374Z" fill="white"/>
<path d="M339.999 63.747C334.038 63.747 328.598 65.9324 324.401 69.5284H324.021C320.213 73.7991 314.421 76.5031 308.251 76.5031C302.481 76.5031 297.478 73.8538 293.343 70.2751C290.13 66.5644 288.158 61.6017 288.158 56.351C288.158 50.1816 291.168 44.3802 295.127 40.0882L295.13 40.0202C298.661 35.8402 300.799 30.4468 300.799 24.5468C300.799 11.2907 290.054 0.546625 276.799 0.546625C263.543 0.546625 252.799 11.2907 252.799 24.5468C252.799 31.2828 255.584 37.3642 260.054 41.7229C263.218 45.5043 266.608 50.6243 266.608 56.351C266.608 61.159 263.947 65.7777 261.348 69.2631H261.023C257.218 73.5364 251.426 76.2378 245.256 76.2378C239.084 76.2378 233.283 73.2311 228.991 69.2711L228.911 69.2684C224.753 65.8231 219.42 63.747 213.597 63.747C200.345 63.747 189.597 74.4924 189.597 87.7459C189.597 101.001 200.345 111.746 213.597 111.746C220.832 111.746 227.301 108.533 231.701 103.47C235.356 100.587 240.053 97.7899 245.256 97.7899C250.272 97.7899 255.092 100.691 258.624 103.389C258.822 103.621 259.032 103.845 259.242 104.071C262.548 107.905 266.343 113.285 266.343 119.345C266.343 125.609 261.822 131.569 258.814 135.09C255.082 139.322 252.799 144.861 252.799 150.946C252.799 164.2 263.543 174.946 276.799 174.946C290.054 174.946 300.799 164.2 300.799 150.946C300.799 144.908 298.551 139.405 294.869 135.186V135.113C294.632 134.899 294.415 134.661 294.187 134.437C293.906 134.137 293.616 133.847 293.319 133.566C289.955 129.827 287.895 124.73 287.895 119.345C287.895 113.205 290.884 107.923 294.814 103.642C298.45 100.793 303.106 98.0553 308.251 98.0553C314.411 98.0553 320.27 102.423 323.814 105.429C328.082 109.339 333.754 111.746 339.999 111.746C353.254 111.746 364 101.001 364 87.7459C364 74.4924 353.254 63.747 339.999 63.747Z" fill="white"/>
<path d="M41.3576 134.401C41.1469 134.18 40.9389 133.958 40.7189 133.745C37.2376 129.989 35.0602 124.835 35.0602 119.343C35.0602 113.469 37.8109 108.387 41.4909 104.207C45.2403 101.125 50.2323 97.922 55.7977 97.922C61.1937 97.922 66.4178 101.318 69.8164 104.258C70.4698 104.947 71.1525 105.611 71.8845 106.218C74.5871 109.825 77.1752 114.094 77.1752 119.026C77.1752 124.401 73.8445 129.551 70.9978 133.13C67.1911 137.161 61.5977 139.704 55.631 139.704C50.3656 139.704 45.3763 137.502 41.3576 134.401ZM105.793 135.69C101.986 131.816 98.7246 125.195 98.7246 119.026C98.7246 112.87 101.727 107.351 105.673 103.062C109.123 98.906 111.202 93.5673 111.202 87.7446C111.202 74.4898 100.454 63.7457 87.2019 63.7457C81.3112 63.7457 75.9258 65.8751 71.7484 69.3938H71.5658C67.7591 73.6671 61.9671 76.3698 55.7977 76.3698C50.863 76.3698 46.1803 74.4325 42.3029 71.6391V71.5738C38.0322 67.7658 35.3269 61.9751 35.3269 55.8057C35.3269 49.6337 38.3362 43.8336 42.2949 39.5416V39.5136C45.847 35.3282 48.0003 29.9175 48.0003 24.0002C48.0003 10.7454 37.2562 3.6204e-06 24.0002 3.6204e-06C10.7454 3.6204e-06 0 10.7454 0 24.0002C0 30.6695 2.72402 36.7016 7.11738 41.0496C10.3107 44.8443 13.7748 50.0137 13.7748 55.8057C13.7748 62.5351 8.55472 68.9151 5.6027 72.2978V72.3445C2.10935 76.5125 0 81.8792 0 87.7446C0 93.4633 2.00801 98.7073 5.34403 102.83H5.33603V102.854C8.83072 106.718 13.5108 112.614 13.5108 119.343C13.5108 126.073 8.28938 132.456 5.33603 135.836V135.87C2.00268 139.992 0 145.232 0 150.945C0 164.198 10.7454 174.945 24.0002 174.945C30.7869 174.945 36.9042 172.114 41.2696 167.586C45.0243 164.489 50.0376 161.256 55.631 161.256C62.3604 161.256 68.4338 166.685 71.8165 169.638L72.1551 169.628C76.2725 172.948 81.5005 174.945 87.2019 174.945C100.454 174.945 111.202 164.198 111.202 150.945C111.202 145.19 109.17 139.912 105.793 135.776V135.69Z" fill="white"/>
<path d="M34.0463 233.619H27.7806L13.4203 217.455L9.81186 221.307V233.619H4.98468V197.316H9.81186V216.26L27.4392 197.316H33.2907L17.0773 214.382L34.0463 233.619Z" fill="white"/>
<path d="M58.4621 201.493C59.9412 203.119 61.0708 205.11 61.851 207.466C62.6474 209.823 63.0456 212.497 63.0456 215.488C63.0456 218.479 62.6393 221.161 61.8266 223.534C61.0302 225.89 59.9087 227.857 58.4621 229.434C56.9667 231.076 55.195 232.311 53.1469 233.14C51.1152 233.969 48.7909 234.383 46.174 234.383C43.6221 234.383 41.2978 233.961 39.2012 233.115C37.1207 232.27 35.349 231.043 33.8861 229.434C32.4232 227.825 31.2936 225.85 30.4972 223.509C29.717 221.169 29.3268 218.495 29.3268 215.488C29.3268 212.53 29.717 209.881 30.4972 207.54C31.2773 205.183 32.4151 203.168 33.9104 201.493C35.3408 199.9 37.1125 198.681 39.2256 197.836C41.3548 196.991 43.671 196.568 46.1742 196.568C48.7748 196.568 51.1073 196.999 53.1717 197.861C55.2522 198.706 57.0155 199.917 58.4621 201.493ZM58.0232 215.488C58.0232 210.774 56.9667 207.141 54.8536 204.589C52.7406 202.021 49.8556 200.737 46.1986 200.737C42.509 200.737 39.6077 202.021 37.4947 204.589C35.3979 207.141 34.3495 210.774 34.3495 215.488C34.3495 220.25 35.4223 223.899 37.5678 226.435C39.7133 228.954 42.5903 230.214 46.1987 230.214C49.8072 230.214 52.676 228.954 54.8051 226.435C56.9506 223.899 58.0232 220.25 58.0232 215.488Z" fill="white"/>
<path d="M88.3581 233.619H65.3914V220.575L60.8567 224.281V220.307L65.3914 216.674V197.316H70.2186V213.115L78.7274 206.215V210.189L70.2186 217.015V229.328H88.3581V233.619Z" fill="white"/>
<path d="M118.481 201.493C119.96 203.119 121.09 205.11 121.87 207.466C122.666 209.823 123.065 212.497 123.065 215.488C123.065 218.479 122.658 221.161 121.845 223.534C121.049 225.89 119.927 227.857 118.481 229.434C116.986 231.076 115.214 232.311 113.166 233.14C111.134 233.969 108.81 234.383 106.193 234.383C103.641 234.383 101.317 233.961 99.22 233.115C97.1395 232.27 95.3678 231.043 93.9049 229.434C92.442 227.825 91.3124 225.85 90.516 223.509C89.7358 221.169 89.3457 218.495 89.3457 215.488C89.3457 212.53 89.7358 209.881 90.516 207.54C91.2962 205.183 92.4339 203.168 93.9293 201.493C95.3596 199.9 97.1313 198.681 99.2444 197.836C101.374 196.991 103.69 196.568 106.193 196.568C108.794 196.568 111.126 196.999 113.19 197.861C115.271 198.706 117.034 199.917 118.481 201.493ZM118.042 215.488C118.042 210.774 116.986 207.141 114.873 204.589C112.759 202.021 109.874 200.737 106.217 200.737C102.528 200.737 99.6265 202.021 97.5135 204.589C95.4168 207.141 94.3684 210.774 94.3684 215.488C94.3684 220.25 95.4411 223.899 97.5867 226.435C99.7322 228.954 102.609 230.214 106.218 230.214C109.826 230.214 112.695 228.954 114.824 226.435C116.969 223.899 118.042 220.25 118.042 215.488Z" fill="white"/>
<path d="M165.347 233.619H159.374L142.161 201.144V233.619H137.651V197.316H145.136L160.837 226.963V197.316H165.347L165.347 233.619Z" fill="white"/>
<path d="M200.232 233.619H195.088L191.528 223.501H175.827L172.267 233.619H167.367L180.581 197.316H187.018L200.232 233.619ZM190.041 219.356L183.678 201.534L177.29 219.356H190.041Z" fill="white"/>
<path d="M230.393 219.03C230.393 221.663 230.1 223.963 229.515 225.93C228.946 227.881 228.003 229.506 226.687 230.807C225.435 232.042 223.972 232.944 222.298 233.513C220.624 234.082 218.674 234.366 216.447 234.366C214.171 234.366 212.188 234.065 210.498 233.464C208.808 232.863 207.385 231.977 206.231 230.807C204.915 229.474 203.964 227.865 203.379 225.979C202.81 224.094 202.525 221.778 202.525 219.031V197.307H207.353V219.274C207.353 221.241 207.483 222.794 207.743 223.931C208.019 225.069 208.474 226.101 209.108 227.028C209.823 228.084 210.79 228.881 212.009 229.417C213.245 229.953 214.724 230.221 216.447 230.221C218.186 230.221 219.665 229.961 220.884 229.441C222.103 228.905 223.078 228.1 223.809 227.028C224.443 226.101 224.89 225.045 225.15 223.858C225.427 222.655 225.565 221.168 225.565 219.396V197.307H230.392L230.393 219.03Z" fill="white"/>
<path d="M266.034 233.619H259.768L245.408 217.455L241.799 221.307V233.619H236.972V197.316H241.799V216.26L259.427 197.316H265.278L249.065 214.382L266.034 233.619Z" fill="white"/>
<path d="M290.412 201.493C291.891 203.119 293.02 205.11 293.801 207.466C294.597 209.823 294.995 212.497 294.995 215.488C294.995 218.479 294.589 221.161 293.776 223.534C292.98 225.89 291.858 227.857 290.412 229.434C288.916 231.076 287.145 232.311 285.097 233.14C283.065 233.969 280.74 234.383 278.124 234.383C275.572 234.383 273.247 233.961 271.151 233.115C269.07 232.27 267.299 231.043 265.836 229.434C264.373 227.825 263.243 225.85 262.447 223.509C261.667 221.169 261.276 218.495 261.276 215.488C261.276 212.53 261.667 209.881 262.447 207.54C263.227 205.183 264.365 203.168 265.86 201.493C267.29 199.9 269.062 198.681 271.175 197.836C273.304 196.991 275.621 196.568 278.124 196.568C280.724 196.568 283.057 196.999 285.121 197.861C287.202 198.706 288.965 199.917 290.412 201.493ZM289.973 215.488C289.973 210.774 288.916 207.141 286.803 204.589C284.69 202.021 281.805 200.737 278.148 200.737C274.459 200.737 271.557 202.021 269.444 204.589C267.348 207.141 266.299 210.774 266.299 215.488C266.299 220.25 267.372 223.899 269.517 226.435C271.663 228.954 274.54 230.214 278.148 230.214C281.757 230.214 284.626 228.954 286.755 226.435C288.9 223.899 289.973 220.25 289.973 215.488Z" fill="white"/>
<path d="M337.618 197.298L328.183 233.601H322.746L315.115 203.466L307.654 233.601H302.339L292.733 197.298H297.682L305.314 227.481L312.823 197.298H317.723L325.306 227.774L332.888 197.298H337.618Z" fill="white"/>
<path d="M365.813 233.619H341.896V197.316H365.813V201.607H346.723V211.554H365.813V215.845H346.723V229.328H365.813V233.619Z" fill="white"/>
</g>
<defs>
<filter id="filter0_d_1_176" x="0" y="0" width="369.813" height="238.383" filterUnits="userSpaceOnUse" color-interpolation-filters="sRGB">
<feFlood flood-opacity="0" result="BackgroundImageFix"/>
<feColorMatrix in="SourceAlpha" type="matrix" values="0 0 0 0 0 0 0 0 0 0 0 0 0 0 0 0 0 0 127 0" result="hardAlpha"/>
<feOffset dx="4" dy="4"/>
<feComposite in2="hardAlpha" operator="out"/>
<feColorMatrix type="matrix" values="0 0 0 0 0 0 0 0 0 0 0 0 0 0 0 0 0 0 1 0"/>
<feBlend mode="normal" in2="BackgroundImageFix" result="effect1_dropShadow_1_176"/>
<feBlend mode="normal" in="SourceGraphic" in2="effect1_dropShadow_1_176" result="shape"/>
</filter>
</defs>
</svg>
