<?xml version="1.0" encoding="UTF-8"?>
<svg width="96.794mm" height="62.017mm" version="1.1" viewBox="0 0 96.794 62.017" xmlns="http://www.w3.org/2000/svg" xmlns:cc="http://creativecommons.org/ns#" xmlns:dc="http://purl.org/dc/elements/1.1/" xmlns:rdf="http://www.w3.org/1999/02/22-rdf-syntax-ns#">
 <defs>
  <clipPath id="clipPath1555">
   <path d="M 0,744.156 H 763.013 V 0 H 0 Z"/>
  </clipPath>
 </defs>
 <metadata>
  <rdf:RDF>
   <cc:Work rdf:about="">
    <dc:format>image/svg+xml</dc:format>
    <dc:type rdf:resource="http://purl.org/dc/dcmitype/StillImage"/>
    <dc:title/>
   </cc:Work>
  </rdf:RDF>
 </metadata>
 <g transform="translate(27.863 -68.525)">
  <g transform="matrix(.35278 0 0 -.35278 -180.99 143.24)" clip-path="url(#clipPath1555)">
   <g transform="translate(517.47 193.37)">
    <path d="m0 0c0-9.941-8.061-18-18-18-9.941 0-18 8.059-18 18s8.059 18 18 18c9.939 0 18-8.059 18-18" fill="#fff"/>
   </g>
   <g transform="translate(612.27 193.37)">
    <path d="m0 0c0-9.941-8.059-18-18-18-9.939 0-18 8.059-18 18s8.061 18 18 18c9.941 0 18-8.059 18-18" fill="#fff"/>
   </g>
   <g transform="translate(707.07 193.37)">
    <path d="m0 0c0-9.941-8.059-18-18-18s-18 8.059-18 18 8.059 18 18 18 18-8.059 18-18" fill="#fff"/>
   </g>
   <g transform="translate(612.27 98.57)">
    <path d="m0 0c0-9.939-8.059-18-18-18-9.939 0-18 8.061-18 18 0 9.941 8.061 18 18 18 9.941 0 18-8.059 18-18" fill="#fff"/>
   </g>
   <g transform="translate(707.07 98.57)">
    <path d="m0 0c0-9.939-8.059-18-18-18s-18 8.061-18 18c0 9.941 8.059 18 18 18s18-8.059 18-18" fill="#fff"/>
   </g>
   <g transform="translate(564.87 193.37)">
    <path d="m0 0c0-9.941-8.059-18-18-18-9.939 0-18 8.059-18 18s8.061 18 18 18c9.941 0 18-8.059 18-18" fill="#fff"/>
   </g>
   <g transform="translate(559.1 111.75)">
    <path d="m0 0c-2.396 2.779-3.865 6.49-3.865 10.414 0 4.629 2.261 8.777 5.23 11.996v0.031c2.739 3.159 4.406 7.268 4.406 11.776 0 9.94-8.058 17.999-18 17.999-9.939 0-18-8.059-18-17.999 0-4.334 1.536-8.309 4.086-11.416h-0.015v-0.018c2.619-2.9 6.129-7.322 6.129-12.369 0-4.072-2.547-7.973-4.696-10.66-3.388-3.272-5.504-7.854-5.504-12.938 0-9.939 8.061-18 18-18 9.942 0 18 8.061 18 18 0 5.215-2.228 9.897-5.771 13.184" fill="#fff"/>
   </g>
   <g transform="translate(689.07 163.97)">
    <path d="m0 0c-4.471 0-8.551-1.639-11.699-4.336h-0.285c-2.856-3.203-7.2-5.231-11.827-5.231-4.328 0-8.08 1.987-11.181 4.671-2.41 2.783-3.889 6.505-3.889 10.443 0 4.627 2.258 8.978 5.227 12.197l2e-3 0.051c2.648 3.135 4.252 7.18 4.252 11.605 0 9.942-8.059 18-18 18-9.942 0-18-8.058-18-18 0-5.052 2.089-9.613 5.441-12.882 2.373-2.836 4.916-6.676 4.916-10.971 0-3.606-1.996-7.07-3.945-9.684h-0.244c-2.854-3.205-7.198-5.231-11.825-5.231-4.629 0-8.98 2.255-12.199 5.225l-0.06 2e-3c-3.118 2.584-7.118 4.141-11.485 4.141-9.939 0-18-8.059-18-17.999 0-9.941 8.061-18 18-18 5.426 0 10.278 2.41 13.578 6.207 2.741 2.162 6.264 4.26 10.166 4.26 3.762 0 7.377-2.176 10.026-4.199 0.148-0.174 0.306-0.342 0.463-0.512 2.48-2.875 5.326-6.91 5.326-11.455 0-4.698-3.391-9.168-5.647-11.809-2.799-3.174-4.511-7.328-4.511-11.892 0-9.94 8.058-18 18-18 9.941 0 18 8.06 18 18 0 4.529-1.686 8.656-4.448 11.82v0.055c-0.177 0.16-0.34 0.339-0.511 0.507-0.211 0.225-0.428 0.442-0.651 0.653-2.523 2.804-4.068 6.627-4.068 10.666 0 4.605 2.242 8.566 5.189 11.777 2.727 2.137 6.219 4.19 10.078 4.19 4.62 0 9.014-3.276 11.672-5.53 3.201-2.933 7.455-4.738 12.139-4.738 9.941 0 18 8.059 18 18 0 9.94-8.059 17.999-18 17.999" fill="#fff"/>
   </g>
   <g transform="translate(465.09 110.98)">
    <path d="m0 0c-0.158 0.166-0.314 0.332-0.479 0.492-2.611 2.817-4.244 6.682-4.244 10.801 0 4.406 2.063 8.217 4.823 11.352 2.812 2.312 6.556 4.714 10.73 4.714 4.047 0 7.965-2.547 10.514-4.752 0.49-0.517 1.002-1.015 1.551-1.47 2.027-2.705 3.968-5.907 3.968-9.606 0-4.031-2.498-7.894-4.633-10.578-2.855-3.023-7.05-4.93-11.525-4.93-3.949 0-7.691 1.651-10.705 3.977m48.326-0.967c-2.855 2.906-5.301 7.871-5.301 12.498 0 4.617 2.252 8.756 5.211 11.973 2.588 3.117 4.147 7.121 4.147 11.488 0 9.941-8.061 17.999-18 17.999-4.418 0-8.457-1.597-11.59-4.236h-0.137c-2.855-3.205-7.199-5.232-11.826-5.232-3.701 0-7.213 1.453-10.121 3.548v0.049c-3.203 2.856-5.232 7.199-5.232 11.826 0 4.629 2.257 8.979 5.226 12.198v0.021c2.664 3.139 4.279 7.197 4.279 11.635 0 9.941-8.058 18-18 18-9.941 0-18-8.059-18-18 0-5.002 2.043-9.526 5.338-12.787 2.395-2.846 4.993-6.723 4.993-11.067 0-5.047-3.915-9.832-6.129-12.369v-0.035c-2.62-3.126-4.202-7.151-4.202-11.55 0-4.289 1.506-8.222 4.008-11.314h-6e-3v-0.018c2.621-2.898 6.131-7.32 6.131-12.367s-3.916-9.834-6.131-12.369v-0.026c-2.5-3.091-4.002-7.021-4.002-11.306 0-9.94 8.059-18 18-18 5.09 0 9.678 2.123 12.952 5.519 2.816 2.323 6.576 4.748 10.771 4.748 5.047 0 9.602-4.072 12.139-6.287l0.254 8e-3c3.088-2.49 7.009-3.988 11.285-3.988 9.939 0 18 8.06 18 18 0 4.316-1.524 8.275-4.057 11.377z" fill="#fff"/>
   </g>
  </g>
  <g transform="translate(-177.94 -163.32)" fill="#fff" stroke-width=".35278" aria-label="KOŁO NAUKOWE">
   <path d="m159.09 293.66h-1.6578l-3.7995-4.2769-0.95472 1.0192v3.2576h-1.2772v-9.6052h1.2772v5.0122l4.6639-5.0122h1.5482l-4.2898 4.5155z"/>
   <path d="m165.55 285.16q0.58702 0.64508 0.89666 1.5804 0.31608 0.93536 0.31608 2.1223 0 1.187-0.32254 2.1288-0.31608 0.93536-0.8902 1.5611-0.59347 0.65153-1.4063 0.98052-0.80635 0.32899-1.8449 0.32899-1.0128 0-1.8449-0.33544-0.8257-0.33544-1.4063-0.97407-0.58057-0.63862-0.89665-1.5675-0.30964-0.92891-0.30964-2.1223 0-1.174 0.30964-2.103 0.30963-0.93536 0.9031-1.5998 0.56767-0.63217 1.4063-0.96761 0.84505-0.33544 1.8385-0.33544 1.0321 0 1.8514 0.34189 0.8257 0.33544 1.3998 0.96116zm-0.11612 3.7027q0-1.8707-0.8386-2.8835-0.8386-1.0192-2.29-1.0192-1.4643 0-2.3029 1.0192-0.83215 1.0128-0.83215 2.8835 0 1.8901 0.8515 2.8964 0.8515 0.99987 2.2836 0.99987t2.2771-0.99987q0.8515-1.0063 0.8515-2.8964z"/>
   <path d="m173.46 293.66h-6.0766v-3.4512l-1.1998 0.98052v-1.0515l1.1998-0.96117v-5.1219h1.2772v4.1801l2.2513-1.8256v1.0515l-2.2513 1.8062v3.2576h4.7994z"/>
   <path d="m181.43 285.16q0.58702 0.64508 0.89665 1.5804 0.31609 0.93536 0.31609 2.1223 0 1.187-0.32254 2.1288-0.31609 0.93536-0.8902 1.5611-0.59347 0.65153-1.4063 0.98052-0.80635 0.32899-1.8449 0.32899-1.0128 0-1.8449-0.33544-0.8257-0.33544-1.4063-0.97407-0.58057-0.63862-0.89666-1.5675-0.30963-0.92891-0.30963-2.1223 0-1.174 0.30963-2.103 0.30964-0.93536 0.90311-1.5998 0.56767-0.63217 1.4063-0.96761 0.84505-0.33544 1.8385-0.33544 1.0321 0 1.8514 0.34189 0.8257 0.33544 1.3998 0.96116zm-0.11612 3.7027q0-1.8707-0.8386-2.8835-0.8386-1.0192-2.29-1.0192-1.4643 0-2.3029 1.0192-0.83214 1.0128-0.83214 2.8835 0 1.8901 0.8515 2.8964 0.8515 0.99987 2.2836 0.99987t2.2771-0.99987q0.8515-1.0063 0.8515-2.8964z"/>
   <path d="m193.83 293.66h-1.5804l-4.5542-8.5924v8.5924h-1.1934v-9.6052h1.9804l4.1543 7.8441v-7.8441h1.1934z"/>
   <path d="m203.06 293.66h-1.3611l-0.94181-2.6771h-4.1543l-0.94181 2.6771h-1.2966l3.4963-9.6052h1.703zm-2.6964-3.7737-1.6836-4.7155-1.6901 4.7155z"/>
   <path d="m211.04 289.8q0 1.045-0.23223 1.8256-0.22578 0.7741-0.74829 1.2902-0.49671 0.49026-1.1611 0.71603-0.66443 0.22578-1.5482 0.22578-0.90311 0-1.574-0.23868t-1.1289-0.70313q-0.52251-0.52897-0.75474-1.2772-0.22577-0.74829-0.22577-1.8385v-5.7476h1.2772v5.8121q0 0.78055 0.10321 1.2321 0.10966 0.45155 0.36124 0.81925 0.28384 0.4193 0.76765 0.63217 0.49025 0.21288 1.174 0.21288 0.69023 0 1.174-0.20643 0.4838-0.21287 0.77409-0.63862 0.25158-0.3677 0.35479-0.8386 0.10966-0.47736 0.10966-1.1805v-5.8444h1.2773z"/>
   <path d="m220.47 293.66h-1.6578l-3.7995-4.2769-0.95472 1.0192v3.2576h-1.2772v-9.6052h1.2772v5.0122l4.6639-5.0122h1.5482l-4.2898 4.5155z"/>
   <path d="m226.92 285.16q0.58702 0.64508 0.89666 1.5804 0.31608 0.93536 0.31608 2.1223 0 1.187-0.32254 2.1288-0.31608 0.93536-0.8902 1.5611-0.59347 0.65153-1.4063 0.98052-0.80635 0.32899-1.8449 0.32899-1.0128 0-1.8449-0.33544-0.8257-0.33544-1.4063-0.97407-0.58057-0.63862-0.89665-1.5675-0.30964-0.92891-0.30964-2.1223 0-1.174 0.30964-2.103 0.30963-0.93536 0.9031-1.5998 0.56767-0.63217 1.4063-0.96761 0.84505-0.33544 1.8385-0.33544 1.0321 0 1.8514 0.34189 0.8257 0.33544 1.3998 0.96116zm-0.11612 3.7027q0-1.8707-0.8386-2.8835-0.8386-1.0192-2.29-1.0192-1.4643 0-2.3029 1.0192-0.83215 1.0128-0.83215 2.8835 0 1.8901 0.8515 2.8964 0.8515 0.99987 2.2836 0.99987t2.2771-0.99987q0.8515-1.0063 0.8515-2.8964z"/>
   <path d="m239.41 284.05-2.4964 9.6052h-1.4385l-2.0191-7.9732-1.9739 7.9732h-1.4063l-2.5416-9.6052h1.3095l2.0191 7.986 1.9868-7.986h1.2966l2.0062 8.0635 2.0062-8.0635z"/>
   <path d="m246.87 293.66h-6.3282v-9.6052h6.3282v1.1353h-5.051v2.6319h5.051v1.1353h-5.051v3.5673h5.051z"/>
  </g>
  <g transform="matrix(.35278 0 0 -.35278 -180.99 143.24)" clip-path="url(#clipPath1555)">
   <g transform="translate(517.47 193.37)">
    <path d="m0 0c0-9.941-8.061-18-18-18-9.941 0-18 8.059-18 18s8.059 18 18 18c9.939 0 18-8.059 18-18" fill="#fff"/>
   </g>
   <g transform="translate(612.27 193.37)">
    <path d="m0 0c0-9.941-8.059-18-18-18-9.939 0-18 8.059-18 18s8.061 18 18 18c9.941 0 18-8.059 18-18" fill="#fff"/>
   </g>
   <g transform="translate(707.07 193.37)">
    <path d="m0 0c0-9.941-8.059-18-18-18s-18 8.059-18 18 8.059 18 18 18 18-8.059 18-18" fill="#fff"/>
   </g>
   <g transform="translate(612.27 98.57)">
    <path d="m0 0c0-9.939-8.059-18-18-18-9.939 0-18 8.061-18 18 0 9.941 8.061 18 18 18 9.941 0 18-8.059 18-18" fill="#fff"/>
   </g>
   <g transform="translate(707.07 98.57)">
    <path d="m0 0c0-9.939-8.059-18-18-18s-18 8.061-18 18c0 9.941 8.059 18 18 18s18-8.059 18-18" fill="#fff"/>
   </g>
   <g transform="translate(564.87 193.37)">
    <path d="m0 0c0-9.941-8.059-18-18-18-9.939 0-18 8.059-18 18s8.061 18 18 18c9.941 0 18-8.059 18-18" fill="#fff"/>
   </g>
   <g transform="translate(559.1 111.75)">
    <path d="m0 0c-2.396 2.779-3.865 6.49-3.865 10.414 0 4.629 2.261 8.777 5.23 11.996v0.031c2.739 3.159 4.406 7.268 4.406 11.776 0 9.94-8.058 17.999-18 17.999-9.939 0-18-8.059-18-17.999 0-4.334 1.536-8.309 4.086-11.416h-0.015v-0.018c2.619-2.9 6.129-7.322 6.129-12.369 0-4.072-2.547-7.973-4.696-10.66-3.388-3.272-5.504-7.854-5.504-12.938 0-9.939 8.061-18 18-18 9.942 0 18 8.061 18 18 0 5.215-2.228 9.897-5.771 13.184" fill="#fff"/>
   </g>
   <g transform="translate(689.07 163.97)">
    <path d="m0 0c-4.471 0-8.551-1.639-11.699-4.336h-0.285c-2.856-3.203-7.2-5.231-11.827-5.231-4.328 0-8.08 1.987-11.181 4.671-2.41 2.783-3.889 6.505-3.889 10.443 0 4.627 2.258 8.978 5.227 12.197l2e-3 0.051c2.648 3.135 4.252 7.18 4.252 11.605 0 9.942-8.059 18-18 18-9.942 0-18-8.058-18-18 0-5.052 2.089-9.613 5.441-12.882 2.373-2.836 4.916-6.676 4.916-10.971 0-3.606-1.996-7.07-3.945-9.684h-0.244c-2.854-3.205-7.198-5.231-11.825-5.231-4.629 0-8.98 2.255-12.199 5.225l-0.06 2e-3c-3.118 2.584-7.118 4.141-11.485 4.141-9.939 0-18-8.059-18-17.999 0-9.941 8.061-18 18-18 5.426 0 10.278 2.41 13.578 6.207 2.741 2.162 6.264 4.26 10.166 4.26 3.762 0 7.377-2.176 10.026-4.199 0.148-0.174 0.306-0.342 0.463-0.512 2.48-2.875 5.326-6.91 5.326-11.455 0-4.698-3.391-9.168-5.647-11.809-2.799-3.174-4.511-7.328-4.511-11.892 0-9.94 8.058-18 18-18 9.941 0 18 8.06 18 18 0 4.529-1.686 8.656-4.448 11.82v0.055c-0.177 0.16-0.34 0.339-0.511 0.507-0.211 0.225-0.428 0.442-0.651 0.653-2.523 2.804-4.068 6.627-4.068 10.666 0 4.605 2.242 8.566 5.189 11.777 2.727 2.137 6.219 4.19 10.078 4.19 4.62 0 9.014-3.276 11.672-5.53 3.201-2.933 7.455-4.738 12.139-4.738 9.941 0 18 8.059 18 18 0 9.94-8.059 17.999-18 17.999" fill="#fff"/>
   </g>
   <g transform="translate(465.09 110.98)">
    <path d="m0 0c-0.158 0.166-0.314 0.332-0.479 0.492-2.611 2.817-4.244 6.682-4.244 10.801 0 4.406 2.063 8.217 4.823 11.352 2.812 2.312 6.556 4.714 10.73 4.714 4.047 0 7.965-2.547 10.514-4.752 0.49-0.517 1.002-1.015 1.551-1.47 2.027-2.705 3.968-5.907 3.968-9.606 0-4.031-2.498-7.894-4.633-10.578-2.855-3.023-7.05-4.93-11.525-4.93-3.949 0-7.691 1.651-10.705 3.977m48.326-0.967c-2.855 2.906-5.301 7.871-5.301 12.498 0 4.617 2.252 8.756 5.211 11.973 2.588 3.117 4.147 7.121 4.147 11.488 0 9.941-8.061 17.999-18 17.999-4.418 0-8.457-1.597-11.59-4.236h-0.137c-2.855-3.205-7.199-5.232-11.826-5.232-3.701 0-7.213 1.453-10.121 3.548v0.049c-3.203 2.856-5.232 7.199-5.232 11.826 0 4.629 2.257 8.979 5.226 12.198v0.021c2.664 3.139 4.279 7.197 4.279 11.635 0 9.941-8.058 18-18 18-9.941 0-18-8.059-18-18 0-5.002 2.043-9.526 5.338-12.787 2.395-2.846 4.993-6.723 4.993-11.067 0-5.047-3.915-9.832-6.129-12.369v-0.035c-2.62-3.126-4.202-7.151-4.202-11.55 0-4.289 1.506-8.222 4.008-11.314h-6e-3v-0.018c2.621-2.898 6.131-7.32 6.131-12.367s-3.916-9.834-6.131-12.369v-0.026c-2.5-3.091-4.002-7.021-4.002-11.306 0-9.94 8.059-18 18-18 5.09 0 9.678 2.123 12.952 5.519 2.816 2.323 6.576 4.748 10.771 4.748 5.047 0 9.602-4.072 12.139-6.287l0.254 8e-3c3.088-2.49 7.009-3.988 11.285-3.988 9.939 0 18 8.06 18 18 0 4.316-1.524 8.275-4.057 11.377z" fill="#fff"/>
   </g>
  </g>
  <g transform="translate(-177.94 -163.32)" fill="#fff" stroke-width=".35278" aria-label="KOŁO NAUKOWE">
   <path d="m159.09 293.66h-1.6578l-3.7995-4.2769-0.95472 1.0192v3.2576h-1.2772v-9.6052h1.2772v5.0122l4.6639-5.0122h1.5482l-4.2898 4.5155z"/>
   <path d="m165.55 285.16q0.58702 0.64508 0.89666 1.5804 0.31608 0.93536 0.31608 2.1223 0 1.187-0.32254 2.1288-0.31608 0.93536-0.8902 1.5611-0.59347 0.65153-1.4063 0.98052-0.80635 0.32899-1.8449 0.32899-1.0128 0-1.8449-0.33544-0.8257-0.33544-1.4063-0.97407-0.58057-0.63862-0.89665-1.5675-0.30964-0.92891-0.30964-2.1223 0-1.174 0.30964-2.103 0.30963-0.93536 0.9031-1.5998 0.56767-0.63217 1.4063-0.96761 0.84505-0.33544 1.8385-0.33544 1.0321 0 1.8514 0.34189 0.8257 0.33544 1.3998 0.96116zm-0.11612 3.7027q0-1.8707-0.8386-2.8835-0.8386-1.0192-2.29-1.0192-1.4643 0-2.3029 1.0192-0.83215 1.0128-0.83215 2.8835 0 1.8901 0.8515 2.8964 0.8515 0.99987 2.2836 0.99987t2.2771-0.99987q0.8515-1.0063 0.8515-2.8964z"/>
   <path d="m173.46 293.66h-6.0766v-3.4512l-1.1998 0.98052v-1.0515l1.1998-0.96117v-5.1219h1.2772v4.1801l2.2513-1.8256v1.0515l-2.2513 1.8062v3.2576h4.7994z"/>
   <path d="m181.43 285.16q0.58702 0.64508 0.89665 1.5804 0.31609 0.93536 0.31609 2.1223 0 1.187-0.32254 2.1288-0.31609 0.93536-0.8902 1.5611-0.59347 0.65153-1.4063 0.98052-0.80635 0.32899-1.8449 0.32899-1.0128 0-1.8449-0.33544-0.8257-0.33544-1.4063-0.97407-0.58057-0.63862-0.89666-1.5675-0.30963-0.92891-0.30963-2.1223 0-1.174 0.30963-2.103 0.30964-0.93536 0.90311-1.5998 0.56767-0.63217 1.4063-0.96761 0.84505-0.33544 1.8385-0.33544 1.0321 0 1.8514 0.34189 0.8257 0.33544 1.3998 0.96116zm-0.11612 3.7027q0-1.8707-0.8386-2.8835-0.8386-1.0192-2.29-1.0192-1.4643 0-2.3029 1.0192-0.83214 1.0128-0.83214 2.8835 0 1.8901 0.8515 2.8964 0.8515 0.99987 2.2836 0.99987t2.2771-0.99987q0.8515-1.0063 0.8515-2.8964z"/>
   <path d="m193.83 293.66h-1.5804l-4.5542-8.5924v8.5924h-1.1934v-9.6052h1.9804l4.1543 7.8441v-7.8441h1.1934z"/>
   <path d="m203.06 293.66h-1.3611l-0.94181-2.6771h-4.1543l-0.94181 2.6771h-1.2966l3.4963-9.6052h1.703zm-2.6964-3.7737-1.6836-4.7155-1.6901 4.7155z"/>
   <path d="m211.04 289.8q0 1.045-0.23223 1.8256-0.22578 0.7741-0.74829 1.2902-0.49671 0.49026-1.1611 0.71603-0.66443 0.22578-1.5482 0.22578-0.90311 0-1.574-0.23868t-1.1289-0.70313q-0.52251-0.52897-0.75474-1.2772-0.22577-0.74829-0.22577-1.8385v-5.7476h1.2772v5.8121q0 0.78055 0.10321 1.2321 0.10966 0.45155 0.36124 0.81925 0.28384 0.4193 0.76765 0.63217 0.49025 0.21288 1.174 0.21288 0.69023 0 1.174-0.20643 0.4838-0.21287 0.77409-0.63862 0.25158-0.3677 0.35479-0.8386 0.10966-0.47736 0.10966-1.1805v-5.8444h1.2773z"/>
   <path d="m220.47 293.66h-1.6578l-3.7995-4.2769-0.95472 1.0192v3.2576h-1.2772v-9.6052h1.2772v5.0122l4.6639-5.0122h1.5482l-4.2898 4.5155z"/>
   <path d="m226.92 285.16q0.58702 0.64508 0.89666 1.5804 0.31608 0.93536 0.31608 2.1223 0 1.187-0.32254 2.1288-0.31608 0.93536-0.8902 1.5611-0.59347 0.65153-1.4063 0.98052-0.80635 0.32899-1.8449 0.32899-1.0128 0-1.8449-0.33544-0.8257-0.33544-1.4063-0.97407-0.58057-0.63862-0.89665-1.5675-0.30964-0.92891-0.30964-2.1223 0-1.174 0.30964-2.103 0.30963-0.93536 0.9031-1.5998 0.56767-0.63217 1.4063-0.96761 0.84505-0.33544 1.8385-0.33544 1.0321 0 1.8514 0.34189 0.8257 0.33544 1.3998 0.96116zm-0.11612 3.7027q0-1.8707-0.8386-2.8835-0.8386-1.0192-2.29-1.0192-1.4643 0-2.3029 1.0192-0.83215 1.0128-0.83215 2.8835 0 1.8901 0.8515 2.8964 0.8515 0.99987 2.2836 0.99987t2.2771-0.99987q0.8515-1.0063 0.8515-2.8964z"/>
   <path d="m239.41 284.05-2.4964 9.6052h-1.4385l-2.0191-7.9732-1.9739 7.9732h-1.4063l-2.5416-9.6052h1.3095l2.0191 7.986 1.9868-7.986h1.2966l2.0062 8.0635 2.0062-8.0635z"/>
   <path d="m246.87 293.66h-6.3282v-9.6052h6.3282v1.1353h-5.051v2.6319h5.051v1.1353h-5.051v3.5673h5.051z"/>
  </g>
 </g>
</svg>
