<svg width="533" height="264" viewBox="0 0 533 264" fill="none" xmlns="http://www.w3.org/2000/svg">
<g filter="url(#filter0_d_2_5)">
<path d="M125.766 70.2826C144.598 70.2826 159.882 54.8441 159.882 35.7894C159.882 16.7349 144.598 1.29724 125.766 1.29724C106.93 1.29746 91.651 16.735 91.6508 35.7894C91.6508 54.844 106.93 70.2824 125.766 70.2826Z" fill="white" stroke="black"/>
<path d="M308.075 70.2826C326.911 70.2826 342.191 54.8441 342.191 35.7894C342.191 16.7349 326.911 1.29724 308.075 1.29724C289.243 1.29746 273.96 16.7351 273.96 35.7894C273.96 54.844 289.243 70.2824 308.075 70.2826Z" fill="white" stroke="black"/>
<path d="M490.384 70.2826C509.22 70.2826 524.5 54.8441 524.5 35.7894C524.5 16.7349 509.22 1.29724 490.384 1.29724C471.548 1.29746 456.269 16.735 456.269 35.7894C456.269 54.844 471.548 70.2824 490.384 70.2826Z" fill="white" stroke="black"/>
<path d="M308.075 254.578C326.911 254.578 342.191 239.136 342.191 220.085C342.191 201.03 326.911 185.593 308.075 185.593C289.243 185.593 273.96 201.03 273.96 220.085C273.96 239.135 289.243 254.578 308.075 254.578Z" fill="white" stroke="black"/>
<path d="M490.384 254.578C509.22 254.578 524.5 239.136 524.5 220.085C524.5 201.03 509.22 185.593 490.384 185.593C471.548 185.593 456.269 201.03 456.269 220.085C456.269 239.135 471.548 254.578 490.384 254.578Z" fill="white" stroke="black"/>
<path d="M216.921 70.2826C235.757 70.2826 251.037 54.8441 251.037 35.7894C251.037 16.7349 235.757 1.29724 216.921 1.29724C198.088 1.29746 182.806 16.7351 182.805 35.7894C182.805 54.844 198.088 70.2824 216.921 70.2826Z" fill="white" stroke="black"/>
<path d="M216.922 254.586C235.76 254.586 251.038 239.143 251.038 220.093C251.038 210.099 246.815 201.126 240.098 194.827L240.078 194.808L240.06 194.787C235.377 189.296 232.507 181.968 232.507 174.218C232.507 165.124 236.867 157.001 242.565 150.706V150.651L242.686 150.51C247.879 144.456 251.038 136.582 251.038 127.943C251.038 108.89 235.76 93.4529 216.922 93.4529C198.09 93.4531 182.807 108.891 182.807 127.943C182.807 136.25 185.719 143.867 190.553 149.821L191.215 150.636H191.213C196.159 156.278 202.422 164.658 202.422 174.218C202.422 182.317 197.423 190.018 193.284 195.251L193.264 195.276L193.241 195.299L192.646 195.894C186.571 202.119 182.807 210.654 182.807 220.093C182.807 239.143 198.09 254.585 216.922 254.586Z" fill="white" stroke="black"/>
<path d="M399.23 254.576C418.066 254.576 433.345 239.135 433.345 220.083C433.345 211.404 430.149 203.495 424.913 197.431L424.792 197.291V197.213C424.499 196.93 424.209 196.617 423.957 196.367L423.942 196.352C423.544 195.923 423.134 195.508 422.712 195.104L422.697 195.09L422.683 195.075C417.751 189.534 414.734 181.984 414.734 174.008C414.734 164.886 419.127 157.071 424.843 150.776L424.87 150.746L424.902 150.72C430.171 146.546 436.999 142.467 444.594 142.467C449.152 142.467 453.572 144.099 457.474 146.261C461.379 148.425 464.799 151.138 467.365 153.338L467.373 153.344L467.38 153.35C473.448 158.972 481.51 162.428 490.385 162.428C509.221 162.428 524.5 146.99 524.5 127.935C524.5 108.883 509.221 93.4452 490.385 93.4451C481.913 93.4451 474.181 96.5834 468.214 101.752L468.073 101.874H467.559C461.972 108.108 453.555 112.044 444.594 112.044C436.108 112.044 428.78 108.104 422.762 102.839L422.735 102.815L422.712 102.788C418.002 97.2894 415.113 89.9389 415.113 82.1609C415.113 73.0732 419.465 64.5586 425.172 58.2507L425.176 58.1609L425.285 58.03C430.305 52.0218 433.345 44.2704 433.345 35.7898C433.345 16.7333 418.066 1.29684 399.23 1.29663C380.392 1.29663 365.114 16.7331 365.114 35.7898C365.114 45.472 369.074 54.2124 375.428 60.4773L375.447 60.4949L375.463 60.5144C380.039 66.0436 385.032 73.6259 385.032 82.1609C385.032 89.3386 381.11 96.1831 377.347 101.284L377.198 101.487H376.698C371.114 107.726 362.697 111.656 353.735 111.656C344.738 111.656 336.314 107.262 330.074 101.493L329.971 101.489L329.839 101.379C323.928 96.4272 316.348 93.4451 308.073 93.4451C289.241 93.4453 273.958 108.883 273.958 127.935C273.958 146.99 289.241 162.428 308.073 162.428C318.354 162.428 327.55 157.813 333.806 150.536L333.837 150.5L333.874 150.47C339.169 146.249 346.057 142.08 353.735 142.08C361.146 142.08 368.213 146.403 373.322 150.347L373.364 150.38L373.399 150.421C373.675 150.749 373.97 151.066 374.276 151.401L374.281 151.407L374.287 151.414C379.064 157.013 384.649 164.978 384.649 174.008C384.649 178.69 382.978 183.231 380.784 187.226C378.588 191.225 375.849 194.71 373.672 197.287L373.666 197.294C368.359 203.377 365.114 211.337 365.114 220.083C365.114 239.136 380.392 254.576 399.23 254.576Z" fill="white" stroke="black"/>
<path d="M125.772 254.574C144.605 254.574 159.888 239.134 159.888 220.081C159.888 211.809 156.998 204.223 152.196 198.278L152.086 198.141V198.039C146.581 192.292 141.892 182.609 141.892 173.543C141.892 164.412 146.291 156.258 152.025 149.949H152.026C156.932 143.976 159.888 136.303 159.888 127.933C159.888 108.879 144.605 93.4434 125.772 93.4432C117.401 93.4432 109.747 96.5014 103.808 101.558L103.667 101.678H103.441C97.8555 107.916 89.439 111.849 80.4775 111.849C73.2278 111.849 66.3733 108.973 60.7197 104.855L60.5137 104.706V104.575C54.345 98.9265 50.4522 90.4211 50.4521 81.3661C50.4521 72.2785 54.7991 63.7689 60.502 57.4618V57.4296L60.6191 57.2899C65.6696 51.2741 68.7314 43.4984 68.7314 34.993C68.7314 15.9383 53.4534 0.499878 34.6152 0.499878C15.7792 0.500098 0.5 15.9385 0.5 34.993C0.500057 44.5798 4.37295 53.2488 10.6191 59.4979L10.6348 59.5135L10.6494 59.5311C15.2676 65.0787 20.3672 72.7342 20.3672 81.3661C20.3672 86.3954 18.4403 91.2631 16.0039 95.4696C13.6114 99.6002 10.705 103.13 8.58105 105.597V105.66L8.46582 105.799C3.49903 111.789 0.500045 119.502 0.5 127.933C0.5 136.154 3.35448 143.69 8.09766 149.616L8.49902 150.119C13.4873 155.758 19.9863 164.269 19.9863 174.006C19.9863 179.035 18.0582 183.903 15.6211 188.11C13.2277 192.242 10.3213 195.773 8.19629 198.237V198.277L8.08691 198.414C3.34761 204.337 0.500089 211.868 0.5 220.081C0.5 239.134 15.7792 254.574 34.6152 254.574C44.2597 254.574 52.955 250.508 59.1621 244L59.1816 243.979L59.2031 243.961C64.6358 239.43 71.9843 234.614 80.2373 234.614C85.2233 234.614 89.9342 236.646 93.9854 239.187C97.9562 241.678 101.337 244.689 103.762 246.831L104.054 246.821L104.241 246.815L104.386 246.933C110.239 251.705 117.67 254.574 125.772 254.574ZM80.2373 204.191C72.5026 204.191 65.2009 200.924 59.3428 196.353L59.3125 196.33L59.2861 196.303C58.9789 195.976 58.6872 195.662 58.3789 195.36L58.3701 195.35L58.3604 195.341C53.258 189.776 50.0674 182.143 50.0674 174.006C50.0674 165.278 54.1113 157.757 59.4658 151.608L59.4922 151.578L59.5234 151.553C64.9488 147.043 72.2657 142.272 80.4775 142.272C88.4497 142.272 96.1031 147.329 101.026 151.635L101.045 151.65L101.062 151.669C101.995 152.664 102.965 153.617 104.001 154.485L104.046 154.523L104.081 154.57C107.99 159.843 111.811 166.181 111.811 173.543C111.811 181.562 106.907 189.189 102.794 194.416L102.78 194.432L102.766 194.448L102.235 195.002C96.6707 200.656 88.7116 204.191 80.2373 204.191Z" fill="white" stroke="black"/>
</g>
<defs>
<filter id="filter0_d_2_5" x="0" y="6.10352e-05" width="533" height="263.086" filterUnits="userSpaceOnUse" color-interpolation-filters="sRGB">
<feFlood flood-opacity="0" result="BackgroundImageFix"/>
<feColorMatrix in="SourceAlpha" type="matrix" values="0 0 0 0 0 0 0 0 0 0 0 0 0 0 0 0 0 0 127 0" result="hardAlpha"/>
<feOffset dx="8" dy="8"/>
<feComposite in2="hardAlpha" operator="out"/>
<feColorMatrix type="matrix" values="0 0 0 0 0 0 0 0 0 0 0 0 0 0 0 0 0 0 1 0"/>
<feBlend mode="normal" in2="BackgroundImageFix" result="effect1_dropShadow_2_5"/>
<feBlend mode="normal" in="SourceGraphic" in2="effect1_dropShadow_2_5" result="shape"/>
</filter>
</defs>
</svg>
