<svg width="4852" height="3103" viewBox="0 0 4852 3103" fill="none" xmlns="http://www.w3.org/2000/svg">
<path d="M1537.8 401.813C1537.8 575.585 1396.89 716.459 1223.16 716.459C1049.39 716.459 908.516 575.585 908.516 401.813C908.516 228.04 1049.39 87.1657 1223.16 87.1657C1396.89 87.1657 1537.8 228.04 1537.8 401.813Z" fill="black"/>
<path d="M3194.9 401.813C3194.9 575.585 3054.03 716.459 2880.26 716.459C2706.53 716.459 2565.62 575.585 2565.62 401.813C2565.62 228.04 2706.53 87.1657 2880.26 87.1657C3054.03 87.1657 3194.9 228.04 3194.9 401.813Z" fill="black"/>
<path d="M4852 401.813C4852 575.585 4711.13 716.459 4537.36 716.459C4363.59 716.459 4222.72 575.585 4222.72 401.813C4222.72 228.04 4363.59 87.1657 4537.36 87.1657C4711.13 87.1657 4852 228.04 4852 401.813Z" fill="black"/>
<path d="M3194.9 2058.95C3194.9 2232.69 3054.03 2373.6 2880.26 2373.6C2706.53 2373.6 2565.62 2232.69 2565.62 2058.95C2565.62 1885.18 2706.53 1744.31 2880.26 1744.31C3054.03 1744.31 3194.9 1885.18 3194.9 2058.95Z" fill="black"/>
<path d="M4852 2058.95C4852 2232.69 4711.13 2373.6 4537.36 2373.6C4363.59 2373.6 4222.72 2232.69 4222.72 2058.95C4222.72 1885.18 4363.59 1744.31 4537.36 1744.31C4711.13 1744.31 4852 1885.18 4852 2058.95Z" fill="black"/>
<path d="M2366.35 401.813C2366.35 575.585 2225.48 716.459 2051.71 716.459C1877.97 716.459 1737.07 575.585 1737.07 401.813C1737.07 228.04 1877.97 87.1657 2051.71 87.1657C2225.48 87.1657 2366.35 228.04 2366.35 401.813Z" fill="black"/>
<path d="M2265.49 1828.56C2223.61 1779.98 2197.93 1715.11 2197.93 1646.52C2197.93 1565.6 2237.45 1493.1 2289.35 1436.83V1436.28C2337.23 1381.06 2366.36 1309.24 2366.36 1230.43C2366.36 1056.68 2225.51 915.805 2051.72 915.805C1877.99 915.805 1737.08 1056.68 1737.08 1230.43C1737.08 1306.19 1763.93 1375.68 1808.51 1429.99H1808.25V1430.31C1854.03 1481 1915.38 1558.3 1915.38 1646.52C1915.38 1717.7 1870.86 1785.89 1833.29 1832.86C1774.07 1890.06 1737.08 1970.15 1737.08 2059.02C1737.08 2232.76 1877.99 2373.67 2051.72 2373.67C2225.51 2373.67 2366.36 2232.76 2366.36 2059.02C2366.36 1967.86 2327.42 1886.02 2265.49 1828.56Z" fill="black"/>
<path d="M4537.36 915.735C4459.21 915.735 4387.89 944.385 4332.86 991.53H4327.88C4277.96 1047.52 4202.03 1082.97 4121.15 1082.97C4045.49 1082.97 3979.91 1048.24 3925.7 1001.32C3883.58 952.671 3857.72 887.609 3857.72 818.771C3857.72 737.89 3897.19 661.832 3949.09 605.563L3949.13 604.672C3995.41 549.871 4023.45 479.162 4023.45 401.812C4023.45 228.022 3882.58 87.1646 3708.81 87.1646C3535.02 87.1646 3394.17 228.022 3394.17 401.812C3394.17 490.123 3430.69 569.851 3489.28 626.994C3530.76 676.568 3575.21 743.693 3575.21 818.771C3575.21 881.806 3540.32 942.358 3506.25 988.051H3501.99C3452.1 1044.08 3376.17 1079.49 3295.29 1079.49C3214.37 1079.49 3138.32 1040.07 3082.05 988.156L3081 988.121C3026.5 942.952 2956.58 915.735 2880.24 915.735C2706.51 915.735 2565.6 1056.61 2565.6 1230.36C2565.6 1404.14 2706.51 1545.01 2880.24 1545.01C2975.09 1545.01 3059.9 1502.88 3117.58 1436.51C3165.5 1398.72 3227.08 1362.04 3295.29 1362.04C3361.05 1362.04 3424.24 1400.08 3470.54 1435.44C3473.13 1438.49 3475.89 1441.42 3478.63 1444.39C3521.98 1494.65 3571.73 1565.18 3571.73 1644.63C3571.73 1726.75 3512.46 1804.89 3473.02 1851.06C3424.1 1906.54 3394.17 1979.15 3394.17 2058.93C3394.17 2232.69 3535.02 2373.58 3708.81 2373.58C3882.58 2373.58 4023.45 2232.69 4023.45 2058.93C4023.45 1979.77 3993.98 1907.62 3945.7 1852.32V1851.35C3942.61 1848.56 3939.76 1845.43 3936.77 1842.49C3933.08 1838.56 3929.29 1834.77 3925.39 1831.08C3881.29 1782.06 3854.28 1715.24 3854.28 1644.63C3854.28 1564.13 3893.47 1494.89 3944.98 1438.77C3992.65 1401.41 4053.69 1365.52 4121.15 1365.52C4201.9 1365.52 4278.71 1422.79 4325.17 1462.19C4381.13 1513.46 4455.49 1545.01 4537.36 1545.01C4711.13 1545.01 4852 1404.14 4852 1230.36C4852 1056.61 4711.13 915.735 4537.36 915.735Z" fill="black"/>
<path d="M622.194 1842.02C619.432 1839.12 616.706 1836.22 613.821 1833.42C568.181 1784.18 539.636 1716.62 539.636 1644.62C539.636 1567.6 575.698 1500.98 623.942 1446.18C673.096 1405.76 738.541 1363.78 811.503 1363.78C882.244 1363.78 950.731 1408.3 995.287 1446.84C1003.85 1455.88 1012.8 1464.59 1022.4 1472.54C1057.83 1519.82 1091.76 1575.8 1091.76 1640.46C1091.76 1710.92 1048.09 1778.45 1010.77 1825.36C960.869 1878.21 887.541 1911.54 809.318 1911.54C740.289 1911.54 674.879 1882.68 622.194 1842.02ZM1466.93 1858.93C1417.03 1808.13 1374.27 1721.34 1374.27 1640.46C1374.27 1559.75 1413.64 1487.4 1465.36 1431.16C1510.6 1376.68 1537.85 1306.69 1537.85 1230.35C1537.85 1056.58 1396.94 915.719 1223.21 915.719C1145.98 915.719 1075.38 943.636 1020.62 989.766H1018.22C968.316 1045.79 892.383 1081.22 811.503 1081.22C746.809 1081.22 685.419 1055.82 634.588 1019.2V1018.35C578.599 968.423 543.132 892.506 543.132 811.624C543.132 730.707 582.585 654.667 634.483 598.398V598.031C681.049 543.16 709.28 472.225 709.28 394.647C709.28 220.874 568.426 79.9998 394.64 79.9998C220.871 79.9998 80 220.874 80 394.647C80 482.084 115.712 561.165 173.308 618.168C215.173 667.918 260.586 735.689 260.586 811.624C260.586 899.847 192.152 983.491 153.451 1027.84V1028.45C107.653 1083.09 80 1153.45 80 1230.35C80 1305.32 106.325 1374.07 150.06 1428.12H149.955V1428.44C195.77 1479.09 257.125 1556.39 257.125 1644.62C257.125 1732.84 188.673 1816.52 149.955 1860.83V1861.29C106.255 1915.32 80 1984.02 80 2058.92C80 2232.67 220.871 2373.57 394.64 2373.57C483.613 2373.57 563.811 2336.46 621.041 2277.09C670.264 2236.48 735.989 2194.09 809.318 2194.09C897.539 2194.09 977.16 2265.27 1021.51 2303.99L1025.95 2303.85C1079.93 2347.38 1148.46 2373.57 1223.21 2373.57C1396.94 2373.57 1537.85 2232.67 1537.85 2058.92C1537.85 1983.47 1511.21 1914.27 1466.93 1860.04V1858.93Z" fill="black"/>
<path d="M1143.16 633.959C1315.51 633.959 1455.3 494.204 1455.3 321.813C1455.3 149.421 1315.51 9.66553 1143.16 9.66553C970.768 9.66562 831.016 149.421 831.016 321.813C831.016 494.205 970.768 633.959 1143.16 633.959Z" fill="white" stroke="black" stroke-width="5"/>
<path d="M2800.26 633.959C2972.65 633.959 3112.4 494.205 3112.4 321.813C3112.4 149.421 2972.65 9.66553 2800.26 9.66553C2627.91 9.66562 2488.12 149.421 2488.12 321.813C2488.12 494.204 2627.91 633.959 2800.26 633.959Z" fill="white" stroke="black" stroke-width="5"/>
<path d="M4457.36 633.959C4629.75 633.959 4769.5 494.205 4769.5 321.813C4769.5 149.421 4629.75 9.66553 4457.36 9.66553C4284.97 9.66562 4145.22 149.421 4145.22 321.813C4145.22 494.205 4284.97 633.959 4457.36 633.959Z" fill="white" stroke="black" stroke-width="5"/>
<path d="M2800.26 2291.1C2972.65 2291.1 3112.4 2151.31 3112.4 1978.95C3112.4 1806.56 2972.65 1666.8 2800.26 1666.8C2627.91 1666.81 2488.12 1806.56 2488.12 1978.95C2488.12 2151.31 2627.91 2291.1 2800.26 2291.1Z" fill="white" stroke="black" stroke-width="5"/>
<path d="M4457.36 2291.1C4629.75 2291.1 4769.5 2151.31 4769.5 1978.95C4769.5 1806.56 4629.75 1666.8 4457.36 1666.8C4284.97 1666.81 4145.22 1806.56 4145.22 1978.95C4145.22 2151.31 4284.97 2291.1 4457.36 2291.1Z" fill="white" stroke="black" stroke-width="5"/>
<path d="M1971.71 633.959C2144.1 633.959 2283.85 494.205 2283.85 321.813C2283.85 149.421 2144.1 9.66553 1971.71 9.66553C1799.36 9.66562 1659.57 149.421 1659.57 321.813C1659.57 494.204 1799.36 633.959 1971.71 633.959Z" fill="white" stroke="black" stroke-width="5"/>
<path d="M1971.72 2291.17C2144.13 2291.17 2283.86 2151.38 2283.86 1979.02C2283.86 1888.59 2245.23 1807.4 2183.79 1750.39L2183.69 1750.3L2183.59 1750.19C2141.33 1701.18 2115.43 1635.73 2115.43 1566.52C2115.43 1485.12 2155.01 1412.31 2206.85 1355.85V1355.35L2207.46 1354.65C2254.96 1299.86 2283.86 1228.61 2283.86 1150.44C2283.86 978.061 2144.13 838.305 1971.72 838.305C1799.37 838.305 1659.58 978.061 1659.58 1150.44C1659.59 1225.59 1686.22 1294.52 1730.44 1348.4L1733.79 1352.49H1733.57C1778.92 1403.21 1837.88 1479.48 1837.88 1566.52C1837.88 1638.63 1792.84 1707.41 1755.25 1754.42L1755.15 1754.55L1755.03 1754.66C1696.27 1811.41 1659.58 1890.86 1659.58 1979.02C1659.59 2151.38 1799.37 2291.17 1971.72 2291.17Z" fill="white" stroke="black" stroke-width="5"/>
<path d="M3628.81 2291.08C3801.2 2291.08 3940.95 2151.31 3940.95 1978.93C3940.95 1900.4 3911.72 1828.84 3863.82 1773.96L3863.2 1773.25V1772.45C3860.36 1769.8 3857.6 1766.82 3855.01 1764.28L3854.98 1764.24L3854.94 1764.2C3851.29 1760.31 3847.53 1756.55 3843.67 1752.89L3843.6 1752.82L3843.53 1752.75C3799.02 1703.28 3771.78 1635.86 3771.78 1564.63C3771.78 1483.28 3811.39 1413.46 3863.14 1357.07L3863.28 1356.92L3863.44 1356.8C3911.24 1319.34 3972.83 1283.02 4041.15 1283.02C4082.1 1283.02 4121.92 1297.54 4157.22 1316.89C4192.54 1336.25 4223.51 1360.54 4246.79 1380.28L4246.83 1380.31L4246.86 1380.35C4302.38 1431.22 4376.14 1462.51 4457.36 1462.51C4629.75 1462.51 4769.5 1322.76 4769.5 1150.36C4769.5 977.99 4629.75 838.235 4457.36 838.235C4379.83 838.235 4309.09 866.654 4254.49 913.428L4253.79 914.03H4249C4198.59 970.065 4122.34 1005.47 4041.15 1005.47C3964.69 1005.47 3898.54 970.362 3844.07 923.209L3843.93 923.091L3843.81 922.955C3801.3 873.868 3775.22 808.229 3775.22 738.771C3775.22 657.413 3814.75 581.066 3866.63 524.548L3866.66 523.715L3867.21 523.058C3913.14 468.688 3940.95 398.546 3940.95 321.812C3940.95 149.403 3801.2 9.66457 3628.81 9.66443C3456.41 9.66443 3316.67 149.403 3316.67 321.812C3316.67 409.418 3352.89 488.51 3411.02 545.204L3411.12 545.292L3411.2 545.39C3452.74 595.041 3497.71 662.756 3497.71 738.771C3497.71 802.651 3462.39 863.758 3428.26 909.545L3427.51 910.551H3423.1C3372.73 966.622 3296.48 1001.99 3215.29 1001.99C3133.9 1001.99 3057.56 962.522 3001.04 910.624L3000.92 910.62L3000.06 910.591L2999.4 910.046C2945.33 865.234 2875.97 838.235 2800.24 838.235C2627.89 838.235 2488.1 977.991 2488.1 1150.36C2488.1 1322.76 2627.89 1462.51 2800.24 1462.51C2894.33 1462.51 2978.46 1420.72 3035.7 1354.87L3035.85 1354.69L3036.04 1354.55C3084.07 1316.66 3146.21 1279.54 3215.29 1279.54C3281.92 1279.54 3345.68 1318.04 3392.06 1353.46L3392.27 1353.62L3392.45 1353.82C3394.99 1356.82 3397.7 1359.7 3400.47 1362.7L3400.5 1362.73L3400.53 1362.76C3443.92 1413.06 3494.23 1484.21 3494.23 1564.63C3494.23 1606.28 3479.21 1646.77 3459.35 1682.54C3439.48 1718.33 3414.68 1749.55 3394.92 1772.68L3394.91 1772.7L3394.9 1772.71C3346.35 1827.76 3316.67 1899.79 3316.67 1978.93C3316.67 2151.31 3456.41 2291.08 3628.81 2291.08Z" fill="white" stroke="black" stroke-width="5"/>
<path d="M1143.21 2291.07C1315.56 2291.07 1455.35 2151.29 1455.35 1978.92C1455.35 1904.07 1428.92 1835.42 1385 1781.63L1384.43 1780.94V1779.94C1334.45 1728.66 1291.77 1641.71 1291.77 1560.46C1291.77 1478.95 1331.51 1406.04 1383.47 1349.53C1428.33 1295.48 1455.35 1226.06 1455.35 1150.35C1455.35 977.958 1315.56 838.219 1143.21 838.219C1066.6 838.219 996.56 865.911 942.227 911.678L941.528 912.266H939.337C888.95 968.337 812.694 1003.72 731.503 1003.72C666.155 1003.72 604.264 978.074 553.126 941.232L552.088 940.483V939.462C496.054 889.058 460.632 812.817 460.632 731.624C460.632 650.251 500.12 573.939 551.982 517.425V517.113L552.576 516.414C598.777 461.974 626.779 391.606 626.779 314.647C626.779 142.255 487.045 2.49957 314.64 2.49957C142.252 2.49967 2.5 142.255 2.5 314.647C2.5001 401.388 37.9245 479.837 95.0664 536.391L95.1475 536.471L95.2207 536.559C137.145 586.38 183.086 654.745 183.086 731.624C183.086 776.36 165.746 819.776 143.688 857.448C121.853 894.741 95.277 926.6 75.9512 948.774V949.36L75.3672 950.056C29.9312 1004.27 2.5 1074.06 2.5 1150.35C2.50006 1224.73 28.6128 1292.93 72.0029 1346.55L75.2988 1350.62H75.2832C120.671 1401.31 179.625 1477.58 179.625 1564.62C179.625 1609.35 162.28 1652.78 140.217 1690.45C118.375 1727.75 91.7902 1759.61 72.4551 1781.77V1782.17L71.8984 1782.86C28.5435 1836.46 2.5 1904.61 2.5 1978.92C2.50022 2151.29 142.252 2291.07 314.64 2291.07C402.901 2291.07 482.46 2254.26 539.241 2195.36L539.34 2195.25L539.45 2195.16C588.763 2154.48 655.07 2111.6 729.317 2111.6C774.087 2111.6 816.515 2129.65 853.184 2152.4C889.454 2174.91 920.311 2202.16 942.41 2221.47L945.868 2221.36L946.795 2221.33L947.517 2221.91C1001.07 2265.09 1069.06 2291.07 1143.21 2291.07ZM729.317 1834.04C659.595 1834.04 593.662 1804.9 540.667 1764L540.516 1763.88L540.384 1763.75C537.605 1760.83 534.92 1757.97 532.081 1755.22L532.033 1755.17L531.988 1755.12C485.938 1705.44 457.137 1637.27 457.137 1564.62C457.137 1486.78 493.586 1419.59 542.065 1364.53L542.199 1364.38L542.354 1364.25C591.599 1323.76 657.626 1281.28 731.503 1281.28C803.182 1281.28 872.257 1326.31 916.923 1364.95L917.017 1365.03L917.102 1365.12C925.622 1374.11 934.498 1382.74 943.994 1390.61L944.222 1390.8L944.399 1391.04C979.884 1438.4 1014.26 1494.93 1014.26 1560.46C1014.26 1631.84 970.087 1699.96 932.731 1746.92L932.665 1747L932.592 1747.08C882.222 1800.42 808.24 1834.04 729.317 1834.04Z" fill="white" stroke="black" stroke-width="5"/>
<path d="M476.344 3092.79H394.202L205.94 2880.87L158.633 2931.37V3092.79H95.3496V2616.85H158.633V2865.2L389.726 2616.85H466.438L253.882 2840.59L476.344 3092.79Z" fill="black"/>
<path d="M796.434 2671.62C815.825 2692.93 830.634 2719.03 840.862 2749.92C851.303 2780.82 856.524 2815.88 856.524 2855.09C856.524 2894.3 851.197 2929.46 840.542 2960.57C830.101 2991.47 815.399 3017.25 796.434 3037.92C776.83 3059.45 753.603 3075.64 726.753 3086.51C700.117 3097.37 669.645 3102.81 635.339 3102.81C601.883 3102.81 571.412 3097.27 543.926 3086.19C516.651 3075.11 493.424 3059.02 474.245 3037.92C455.067 3016.83 440.257 2990.94 429.816 2960.25C419.588 2929.57 414.474 2894.51 414.474 2855.09C414.474 2816.31 419.588 2781.57 429.816 2750.89C440.044 2719.99 454.96 2693.56 474.564 2671.62C493.316 2650.73 516.542 2634.75 544.245 2623.67C572.159 2612.59 602.525 2607.05 635.341 2607.05C669.434 2607.05 700.013 2612.7 727.077 2623.99C754.352 2635.07 777.47 2650.95 796.434 2671.62ZM790.68 2855.09C790.68 2793.29 776.829 2745.66 749.128 2712.21C721.426 2678.54 683.604 2661.71 635.66 2661.71C587.29 2661.71 549.254 2678.54 521.553 2712.21C494.065 2745.66 480.321 2793.29 480.321 2855.09C480.321 2917.52 494.384 2965.36 522.512 2998.6C550.639 3031.63 588.356 3048.15 635.663 3048.15C682.969 3048.15 720.578 3031.63 748.491 2998.6C776.619 2965.36 790.68 2917.52 790.68 2855.09Z" fill="black"/>
<path d="M1223.37 3092.79H922.277V2921.78L862.827 2970.37V2918.27L922.277 2870.64V2616.85H985.561V2823.98L1097.11 2733.52V2785.62L985.561 2875.11V3036.53H1223.37V3092.79Z" fill="black"/>
<path d="M1583.27 2671.62C1602.66 2692.93 1617.47 2719.03 1627.7 2749.92C1638.14 2780.82 1643.36 2815.88 1643.36 2855.09C1643.36 2894.3 1638.04 2929.46 1627.38 2960.57C1616.94 2991.47 1602.24 3017.25 1583.27 3037.92C1563.67 3059.45 1540.44 3075.64 1513.59 3086.51C1486.96 3097.37 1456.49 3102.81 1422.18 3102.81C1388.72 3102.81 1358.25 3097.27 1330.77 3086.19C1303.49 3075.11 1280.26 3059.02 1261.08 3037.92C1241.91 3016.83 1227.1 2990.94 1216.66 2960.25C1206.43 2929.57 1201.31 2894.51 1201.31 2855.09C1201.31 2816.31 1206.43 2781.57 1216.66 2750.89C1226.88 2719.99 1241.8 2693.56 1261.4 2671.62C1280.16 2650.73 1303.38 2634.75 1331.09 2623.67C1359 2612.59 1389.37 2607.05 1422.18 2607.05C1456.28 2607.05 1486.85 2612.7 1513.92 2623.99C1541.19 2635.07 1564.31 2650.95 1583.27 2671.62ZM1577.52 2855.09C1577.52 2793.29 1563.67 2745.66 1535.97 2712.21C1508.27 2678.54 1470.44 2661.71 1422.5 2661.71C1374.13 2661.71 1336.1 2678.54 1308.39 2712.21C1280.91 2745.66 1267.16 2793.29 1267.16 2855.09C1267.16 2917.52 1281.23 2965.36 1309.35 2998.6C1337.48 3031.63 1375.2 3048.15 1422.5 3048.15C1469.81 3048.15 1507.42 3031.63 1535.33 2998.6C1563.46 2965.36 1577.52 2917.52 1577.52 2855.09Z" fill="black"/>
<path d="M2197.69 3092.79H2119.38L1893.72 2667.04V3092.79H1834.59V2616.85H1932.72L2138.56 3005.53V2616.85H2197.69L2197.69 3092.79Z" fill="black"/>
<path d="M2655.02 3092.79H2587.58L2540.92 2960.14H2335.07L2288.41 3092.79H2224.16L2397.4 2616.85H2481.78L2655.02 3092.79ZM2521.42 2905.8L2438 2672.15L2354.26 2905.8H2521.42Z" fill="black"/>
<path d="M3050.43 2901.53C3050.43 2936.05 3046.59 2966.2 3038.92 2991.99C3031.46 3017.56 3019.11 3038.87 3001.85 3055.92C2985.44 3072.11 2966.26 3083.94 2944.31 3091.4C2922.37 3098.86 2896.79 3102.59 2867.6 3102.59C2837.77 3102.59 2811.77 3098.64 2789.61 3090.76C2767.45 3082.87 2748.8 3071.26 2733.67 3055.92C2716.41 3038.45 2703.95 3017.35 2696.28 2992.63C2688.82 2967.92 2685.09 2937.55 2685.09 2901.54V2616.74H2748.38V2904.73C2748.38 2930.51 2750.08 2950.87 2753.49 2965.78C2757.11 2980.7 2763.08 2994.23 2771.39 3006.38C2780.76 3020.23 2793.44 3030.67 2809.43 3037.7C2825.62 3044.73 2845.01 3048.25 2867.6 3048.25C2890.4 3048.25 2909.79 3044.84 2925.77 3038.02C2941.75 3030.99 2954.53 3020.44 2964.12 3006.38C2972.43 2994.23 2978.29 2980.38 2981.7 2964.82C2985.32 2949.05 2987.14 2929.56 2987.14 2906.33V2616.74H3050.43L3050.43 2901.53Z" fill="black"/>
<path d="M3517.68 3092.79H3435.53L3247.27 2880.87L3199.97 2931.37V3092.79H3136.68V2616.85H3199.97V2865.2L3431.06 2616.85H3507.77L3295.22 2840.59L3517.68 3092.79Z" fill="black"/>
<path d="M3837.27 2671.62C3856.66 2692.93 3871.47 2719.03 3881.7 2749.92C3892.14 2780.82 3897.36 2815.88 3897.36 2855.09C3897.36 2894.3 3892.03 2929.46 3881.38 2960.57C3870.94 2991.47 3856.23 3017.25 3837.27 3037.92C3817.67 3059.45 3794.44 3075.64 3767.59 3086.51C3740.95 3097.37 3710.48 3102.81 3676.17 3102.81C3642.72 3102.81 3612.25 3097.27 3584.76 3086.19C3557.49 3075.11 3534.26 3059.02 3515.08 3037.92C3495.9 3016.83 3481.09 2990.94 3470.65 2960.25C3460.42 2929.57 3455.31 2894.51 3455.31 2855.09C3455.31 2816.31 3460.42 2781.57 3470.65 2750.89C3480.88 2719.99 3495.8 2693.56 3515.4 2671.62C3534.15 2650.73 3557.38 2634.75 3585.08 2623.67C3613 2612.59 3643.36 2607.05 3676.18 2607.05C3710.27 2607.05 3740.85 2612.7 3767.91 2623.99C3795.19 2635.07 3818.31 2650.95 3837.27 2671.62ZM3831.52 2855.09C3831.52 2793.29 3817.67 2745.66 3789.96 2712.21C3762.26 2678.54 3724.44 2661.71 3676.5 2661.71C3628.13 2661.71 3590.09 2678.54 3562.39 2712.21C3534.9 2745.66 3521.16 2793.29 3521.16 2855.09C3521.16 2917.52 3535.22 2965.36 3563.35 2998.6C3591.48 3031.63 3629.19 3048.15 3676.5 3048.15C3723.8 3048.15 3761.41 3031.63 3789.33 2998.6C3817.45 2965.36 3831.52 2917.52 3831.52 2855.09Z" fill="black"/>
<path d="M4456.14 2616.61L4332.45 3092.56H4261.17L4161.12 2697.48L4063.32 3092.56H3993.64L3867.7 2616.61H3932.59L4032.63 3012.32L4131.08 2616.61H4195.32L4294.73 3016.16L4394.14 2616.61H4456.14Z" fill="black"/>
<path d="M4825.78 3092.79H4512.22V2616.85H4825.78V2673.11H4575.5V2803.52H4825.78V2859.77H4575.5V3036.53H4825.78V3092.79Z" fill="black"/>
<path d="M126.133 2589.35V2841.56L130.463 2836.91L360.814 2589.35H430.614L222.068 2808.87L220.492 2810.53L222.006 2812.25L440.806 3060.3H365.324L177.808 2849.21L175.987 2847.16L174.114 2849.16L126.808 2899.67L126.133 2900.39V3060.29H67.8486V2589.35H126.133Z" fill="white" stroke="black" stroke-width="5"/>
<path d="M605.34 2579.55C639.156 2579.55 669.4 2585.15 696.113 2596.3L696.124 2596.3L696.136 2596.31C723.082 2607.26 745.884 2622.92 764.584 2643.3V2643.3C783.71 2664.32 798.356 2690.1 808.488 2720.71L808.49 2720.72L808.493 2720.73C818.831 2751.32 824.023 2786.1 824.023 2825.09C824.023 2864.07 818.727 2898.95 808.177 2929.76H808.176L808.173 2929.77C797.825 2960.39 783.285 2985.86 764.591 3006.23L764.585 3006.24C745.232 3027.49 722.315 3043.46 695.813 3054.19L695.808 3054.19C669.523 3064.92 639.381 3070.31 605.338 3070.31C572.164 3070.31 542.017 3064.82 514.865 3053.87H514.866C487.926 3042.93 465.013 3027.05 446.094 3006.24C427.471 2985.76 412.986 2960.65 402.67 2930.87L402.183 2929.45C392.059 2899.07 386.973 2864.3 386.973 2825.09C386.973 2786.53 392.059 2752.07 402.188 2721.68L402.188 2721.67C412.32 2691.07 427.075 2664.95 446.428 2643.28L446.427 2643.28C464.905 2622.7 487.805 2606.94 515.172 2595.99L515.171 2595.99C542.764 2585.04 572.812 2579.55 605.34 2579.55ZM605.659 2629.21C556.635 2629.21 517.854 2646.31 489.622 2680.62L489.62 2680.62C461.636 2714.68 447.819 2762.96 447.819 2825.09C447.819 2887.86 461.957 2936.37 490.603 2970.22L490.607 2970.23C519.256 3003.87 557.697 3020.65 605.661 3020.65C653.625 3020.65 691.963 3003.87 720.399 2970.22L720.398 2970.22C749.043 2936.36 763.179 2887.86 763.179 2825.09C763.179 2763.92 749.686 2716.19 722.364 2682.22L721.053 2680.61C692.826 2646.31 654.263 2629.21 605.659 2629.21Z" fill="white" stroke="black" stroke-width="5"/>
<path d="M953.059 2589.35V2799.22L957.134 2795.92L1064.61 2708.76V2754.42L953.995 2843.17L953.059 2843.92V3009.03H1190.87V3060.29H894.776V2886.51L890.694 2889.85L835.326 2935.1V2889.47L893.838 2842.59L894.776 2841.84V2589.35H953.059Z" fill="white" stroke="black" stroke-width="5"/>
<path d="M1392.18 2579.55C1426 2579.55 1456.24 2585.15 1482.95 2596.3L1482.96 2596.3L1482.98 2596.31C1509.92 2607.26 1532.72 2622.92 1551.42 2643.3V2643.3C1570.55 2664.32 1585.2 2690.1 1595.33 2720.71L1595.33 2720.72L1595.33 2720.73C1605.67 2751.32 1610.86 2786.1 1610.86 2825.09C1610.86 2864.07 1605.57 2898.95 1595.02 2929.76H1595.02L1595.01 2929.77C1584.67 2960.39 1570.12 2985.86 1551.43 3006.23L1551.42 3006.24C1532.07 3027.49 1509.16 3043.46 1482.65 3054.19L1482.65 3054.19C1456.36 3064.92 1426.22 3070.31 1392.18 3070.31C1359 3070.31 1328.86 3064.82 1301.71 3053.87H1301.71C1274.77 3042.93 1251.85 3027.05 1232.93 3006.24C1214.31 2985.76 1199.83 2960.65 1189.51 2930.87L1189.02 2929.45C1178.9 2899.07 1173.81 2864.3 1173.81 2825.09C1173.81 2786.53 1178.9 2752.07 1189.03 2721.68L1189.03 2721.67C1199.16 2691.07 1213.92 2664.95 1233.27 2643.28L1233.27 2643.28C1251.75 2622.7 1274.65 2606.94 1302.01 2595.99L1302.01 2595.99C1329.6 2585.04 1359.65 2579.55 1392.18 2579.55ZM1392.5 2629.21C1343.48 2629.21 1304.69 2646.31 1276.46 2680.62L1276.46 2680.62C1248.48 2714.68 1234.66 2762.96 1234.66 2825.09C1234.66 2887.86 1248.8 2936.37 1277.44 2970.22L1277.45 2970.23C1306.1 3003.87 1344.54 3020.65 1392.5 3020.65C1440.47 3020.65 1478.8 3003.87 1507.24 2970.22L1507.24 2970.22C1535.88 2936.36 1550.02 2887.86 1550.02 2825.09C1550.02 2763.92 1536.53 2716.19 1509.21 2682.22L1507.89 2680.61C1479.67 2646.31 1441.1 2629.21 1392.5 2629.21Z" fill="white" stroke="black" stroke-width="5"/>
<path d="M1901.21 2589.35L2106.35 2976.7L2111.06 2975.53V2589.35H2165.19L2165.18 3060.29H2090.88L1865.93 2635.87L1861.22 2637.04V3060.29H1807.09V2589.35H1901.21Z" fill="white" stroke="black" stroke-width="5"/>
<path d="M2450.03 2589.35L2621.45 3060.29H2559.35L2513.27 2929.31L2512.69 2927.64H2303.3L2302.71 2929.31L2256.64 3060.29H2197.73L2369.15 2589.35H2450.03ZM2405.64 2641.31L2321.9 2874.96L2320.7 2878.31H2494.97L2493.77 2874.96L2410.35 2641.31L2408 2634.73L2405.64 2641.31Z" fill="white" stroke="black" stroke-width="5"/>
<path d="M3017.92 2589.24L3017.93 2871.53C3017.93 2905.87 3014.11 2935.78 3006.53 2961.28L3006.52 2961.29C2999.17 2986.49 2987.02 3007.42 2970.09 3024.14C2953.95 3040.07 2935.1 3051.7 2913.51 3059.03C2891.88 3066.38 2866.59 3070.09 2837.6 3070.09C2807.98 3070.09 2782.28 3066.17 2760.45 3058.41C2738.61 3050.64 2720.3 3039.21 2705.45 3024.17L2705.45 3024.16C2688.75 3007.26 2676.61 2986.9 2669.02 2963.03L2668.67 2961.89C2661.3 2937.48 2657.59 2907.38 2657.59 2871.54V2589.24H2715.87V2874.73C2715.87 2900.59 2717.58 2921.16 2721.05 2936.34L2721.05 2936.36L2721.06 2936.37C2724.75 2951.57 2730.83 2965.37 2739.32 2977.78V2977.78C2748.97 2992.04 2762.02 3002.78 2778.42 3009.99L2778.43 3010C2795.01 3017.2 2814.76 3020.75 2837.59 3020.75C2860.63 3020.75 2880.38 3017.31 2896.75 3010.32L2896.76 3010.31L2896.77 3010.31C2913.17 3003.09 2926.33 2992.25 2936.18 2977.79C2944.69 2965.36 2950.67 2951.2 2954.14 2935.36C2957.82 2919.35 2959.63 2899.66 2959.63 2876.33V2589.24H3017.92Z" fill="white" stroke="black" stroke-width="5"/>
<path d="M3167.47 2589.35V2841.56L3171.8 2836.91L3402.15 2589.35H3471.95L3263.4 2808.87L3261.83 2810.53L3263.34 2812.25L3482.14 3060.3H3406.66L3219.14 2849.21L3217.32 2847.16L3215.45 2849.16L3168.14 2899.67L3167.47 2900.39V3060.29H3109.18V2589.35H3167.47Z" fill="white" stroke="black" stroke-width="5"/>
<path d="M3646.18 2579.55C3679.99 2579.55 3710.24 2585.15 3736.95 2596.3L3736.96 2596.3L3736.97 2596.31C3763.92 2607.26 3786.72 2622.92 3805.42 2643.3V2643.3C3824.55 2664.32 3839.19 2690.1 3849.32 2720.71L3849.33 2720.72L3849.33 2720.73C3859.67 2751.32 3864.86 2786.1 3864.86 2825.09C3864.86 2864.07 3859.56 2898.95 3849.01 2929.76H3849.01L3849.01 2929.77C3838.66 2960.39 3824.12 2985.86 3805.43 3006.23L3805.42 3006.24C3786.07 3027.49 3763.15 3043.46 3736.65 3054.19L3736.64 3054.19C3710.36 3064.92 3680.22 3070.31 3646.17 3070.31C3613 3070.31 3582.85 3064.82 3555.7 3053.87H3555.7C3528.76 3042.93 3505.85 3027.05 3486.93 3006.24C3468.31 2985.76 3453.82 2960.65 3443.51 2930.87L3443.02 2929.45C3432.89 2899.07 3427.81 2864.3 3427.81 2825.09C3427.81 2786.53 3432.9 2752.07 3443.02 2721.68L3443.02 2721.67C3453.16 2691.07 3467.91 2664.95 3487.26 2643.28L3487.26 2643.28C3505.74 2622.7 3528.64 2606.94 3556.01 2595.99L3556.01 2595.99C3583.6 2585.04 3613.65 2579.55 3646.18 2579.55ZM3646.5 2629.21C3597.47 2629.21 3558.69 2646.31 3530.46 2680.62L3530.46 2680.62C3502.47 2714.68 3488.66 2762.96 3488.66 2825.09C3488.66 2887.86 3502.79 2936.37 3531.44 2970.22L3531.44 2970.23C3560.09 3003.87 3598.53 3020.65 3646.5 3020.65C3694.46 3020.65 3732.8 3003.87 3761.24 2970.22L3761.23 2970.22C3789.88 2936.36 3804.01 2887.86 3804.01 2825.09C3804.01 2762.95 3790.09 2714.67 3761.89 2680.61C3733.66 2646.31 3695.1 2629.21 3646.5 2629.21Z" fill="white" stroke="black" stroke-width="5"/>
<path d="M3900.64 2589.11L4000.21 2982.94L4005.06 2982.93L4103.03 2589.11H4163.37L4262.3 2986.77H4267.16L4366.09 2589.11H4422.91L4300.51 3060.06H4233.12L4133.55 2666.87L4128.7 2666.88L4031.36 3060.06H3965.56L3840.95 2589.11H3900.64Z" fill="white" stroke="black" stroke-width="5"/>
<path d="M4793.28 2589.35V2640.61H4543V2776.02H4793.28V2827.27H4543V3009.04H4793.28V3060.29H4484.72V2589.35H4793.28Z" fill="white" stroke="black" stroke-width="5"/>
</svg>
