<svg width="462" height="293" viewBox="0 0 462 293" fill="none" xmlns="http://www.w3.org/2000/svg">
<g filter="url(#filter0_d_2_26)">
<path d="M108.695 60.0157C124.938 60.0157 138.112 46.845 138.112 30.5987C138.112 14.3523 124.938 1.18169 108.695 1.18169C92.449 1.18175 79.2784 14.3523 79.2784 30.5987C79.2784 46.845 92.4491 60.0156 108.695 60.0157Z" fill="white" stroke="black"/>
<path d="M266.259 60.0157C282.505 60.0157 295.676 46.845 295.676 30.5987C295.676 14.3523 282.505 1.18169 266.259 1.18169C250.016 1.18175 236.842 14.3523 236.842 30.5987C236.842 46.845 250.016 60.0156 266.259 60.0157Z" fill="white" stroke="black"/>
<path d="M423.822 60.0157C440.068 60.0157 453.239 46.845 453.239 30.5987C453.239 14.3523 440.068 1.18169 423.822 1.18169C407.576 1.18175 394.405 14.3523 394.405 30.5987C394.405 46.845 407.576 60.0156 423.822 60.0157Z" fill="white" stroke="black"/>
<path d="M266.259 217.579C282.505 217.579 295.676 204.405 295.676 188.162C295.676 171.916 282.505 158.745 266.259 158.745C250.016 158.745 236.842 171.916 236.842 188.162C236.842 204.405 250.016 217.579 266.259 217.579Z" fill="white" stroke="black"/>
<path d="M423.822 217.579C440.068 217.579 453.239 204.405 453.239 188.162C453.239 171.916 440.068 158.745 423.822 158.745C407.576 158.745 394.405 171.916 394.405 188.162C394.405 204.405 407.576 217.579 423.822 217.579Z" fill="white" stroke="black"/>
<path d="M187.477 60.0157C203.724 60.0157 216.894 46.845 216.894 30.5987C216.894 14.3523 203.724 1.18169 187.477 1.18169C171.234 1.18175 158.06 14.3523 158.06 30.5987C158.06 46.845 171.234 60.0156 187.477 60.0157Z" fill="white" stroke="black"/>
<path d="M187.479 217.586C203.727 217.586 216.896 204.412 216.896 188.169C216.896 179.647 213.256 171.996 207.464 166.623L207.443 166.603L207.425 166.583C203.367 161.876 200.88 155.593 200.88 148.947C200.88 141.158 204.65 134.204 209.572 128.817V128.771L209.695 128.63C214.172 123.466 216.896 116.752 216.896 109.386C216.896 93.1408 203.727 79.9695 187.479 79.9695C171.236 79.9696 158.062 93.1409 158.062 109.386C158.062 116.468 160.572 122.964 164.739 128.042L165.346 128.78C169.615 133.603 175.015 140.768 175.015 148.947C175.015 155.901 170.678 162.503 167.1 166.977L167.08 167.003L167.057 167.024L166.544 167.532C161.306 172.842 158.062 180.12 158.062 188.169C158.062 204.412 171.236 217.586 187.479 217.586Z" fill="white" stroke="black"/>
<path d="M345.04 217.577C361.287 217.577 374.457 204.405 374.457 188.16C374.457 180.76 371.703 174.016 367.188 168.844L367.065 168.702V168.639C366.818 168.402 366.573 168.141 366.365 167.938L366.351 167.923C366.008 167.557 365.654 167.203 365.29 166.859L365.276 166.845L365.262 166.829C360.988 162.079 358.372 155.607 358.372 148.768C358.372 140.943 362.182 134.245 367.128 128.856L367.156 128.825L367.189 128.8C371.746 125.228 377.662 121.73 384.247 121.73C388.202 121.73 392.031 123.13 395.409 124.982C398.79 126.835 401.751 129.157 403.97 131.039L403.977 131.046L403.985 131.052C409.217 135.847 416.169 138.796 423.823 138.796C440.069 138.796 453.24 125.624 453.24 109.378C453.239 93.1337 440.069 79.9632 423.823 79.9631C416.516 79.9631 409.849 82.6406 404.703 87.049L404.563 87.1701H404.123C399.281 92.5017 391.999 95.8643 384.247 95.8644C376.893 95.8644 370.545 92.4867 365.336 87.9787L365.309 87.9553L365.285 87.9279C361.204 83.2144 358.699 76.9126 358.699 70.2433C358.7 62.459 362.463 55.1704 367.394 49.7707L367.398 49.6955L367.509 49.5637C371.837 44.4394 374.457 37.8298 374.457 30.5988C374.457 14.3508 361.287 1.18182 345.04 1.18182C328.792 1.18196 315.623 14.3508 315.623 30.5988C315.623 38.8545 319.037 46.3081 324.516 51.6516L324.534 51.6691L324.55 51.6887C328.507 56.4176 332.837 62.9177 332.837 70.2433C332.837 76.4058 329.435 82.2746 326.182 86.6379L326.031 86.8391H325.595C320.755 92.1744 313.473 95.5334 305.721 95.5334C297.934 95.5333 290.646 91.7758 285.246 86.8439L285.158 86.84L285.027 86.7307C279.93 82.5073 273.394 79.9631 266.257 79.9631C250.014 79.9631 236.84 93.1336 236.84 109.378C236.84 125.624 250.014 138.796 266.257 138.796C275.124 138.796 283.053 134.859 288.448 128.652L288.478 128.615L288.515 128.587C293.095 124.975 299.063 121.399 305.721 121.399C312.148 121.399 318.271 125.107 322.689 128.481L322.731 128.513L322.766 128.554C323.003 128.833 323.256 129.102 323.522 129.39L323.528 129.396L323.533 129.403C327.663 134.19 332.507 141.018 332.507 148.768C332.507 152.789 331.057 156.684 329.157 160.106C327.494 163.103 325.47 165.763 323.729 167.858L323.001 168.72L322.996 168.726L322.573 169.217C318.248 174.339 315.623 180.936 315.623 188.16C315.623 204.405 328.792 217.577 345.04 217.577Z" fill="white" stroke="black"/>
<path d="M108.7 217.576C124.943 217.576 138.117 204.404 138.117 188.159C138.117 181.105 135.627 174.636 131.487 169.566L131.375 169.427V169.345C126.615 164.418 122.564 156.135 122.564 148.371C122.564 140.54 126.378 133.553 131.34 128.152V128.151C135.57 123.057 138.117 116.514 138.117 109.377C138.117 93.1305 124.943 79.9616 108.7 79.9616C101.48 79.9616 94.8798 82.5709 89.7588 86.8844L89.6201 87.0016H89.4307C84.5896 92.3374 77.306 95.6979 69.5537 95.6979C63.2717 95.6978 57.334 93.2329 52.4395 89.7067L52.2324 89.5573V89.4401C46.9003 84.5976 43.5362 77.3164 43.5361 69.5641C43.5361 61.7799 47.2951 54.4964 52.2227 49.0973V49.0719L52.3408 48.9313C56.6951 43.8005 59.3339 37.1699 59.334 29.9176C59.334 13.6712 46.165 0.499664 29.917 0.499664C13.6706 0.499721 0.5 13.6713 0.5 29.9176C0.500115 38.092 3.83811 45.4851 9.22363 50.8151L9.24023 50.8307L9.25488 50.8483C13.2475 55.5928 17.6709 62.1554 17.6709 69.5641C17.6709 73.8831 15.9975 78.0581 13.8887 81.6598C11.8243 85.1855 9.31914 88.2 7.48438 90.3083V90.362L7.36719 90.5016C3.08505 95.6108 0.500101 102.188 0.5 109.377C0.5 116.386 2.96044 122.813 7.0498 127.867L7.39746 128.298C11.7082 133.118 17.3418 140.412 17.3418 148.766C17.3418 153.085 15.6681 157.262 13.5586 160.864C11.4934 164.39 8.98707 167.405 7.15137 169.511V169.545L7.04004 169.682C2.95407 174.734 0.5 181.156 0.5 188.159C0.500058 204.404 13.6707 217.576 29.917 217.576C38.2345 217.576 45.7321 214.108 51.084 208.556L51.1035 208.536L51.126 208.517C55.824 204.642 62.1898 200.512 69.3457 200.511C73.6714 200.511 77.7552 202.255 81.2617 204.43C84.6882 206.557 87.6073 209.125 89.7012 210.955L89.9287 210.948L90.1133 210.942L90.2578 211.058C95.3052 215.128 101.712 217.576 108.7 217.576ZM69.3457 174.646C62.6436 174.646 56.3195 171.845 51.248 167.931L51.2178 167.908L51.1914 167.881C50.9254 167.601 50.6743 167.334 50.4092 167.077L50.3906 167.058C45.969 162.288 43.2041 155.744 43.2041 148.766C43.2041 141.279 46.7105 134.832 51.3447 129.568L51.3711 129.538L51.4023 129.512C56.0942 125.655 62.4333 121.563 69.5537 121.563C76.4675 121.563 83.097 125.9 87.3555 129.584L87.375 129.599L87.3916 129.618C88.1971 130.468 89.0333 131.281 89.9258 132.02L89.9717 132.057L90.0068 132.105C93.3864 136.615 96.7021 142.05 96.7021 148.371C96.7021 155.255 92.4482 161.793 88.8926 166.263L88.8799 166.28L88.8652 166.296L88.4053 166.77C83.583 171.617 76.6866 174.646 69.3457 174.646Z" fill="white" stroke="black"/>
</g>
<g filter="url(#filter1_d_2_26)">
<path d="M11.7312 246.462V270.847L12.5974 269.917L34.4216 246.462H40.3328L20.9246 266.891L20.6101 267.223L20.9128 267.566L41.3318 290.716H34.8542L17.1023 270.733L16.739 270.324L16.364 270.723L11.866 275.525L11.7312 275.67V290.715H6.71362V246.462H11.7312Z" fill="white" stroke="black"/>
<path d="M57.5581 245.53C60.7443 245.53 63.5852 246.058 66.0884 247.102L66.0923 247.104C68.6197 248.131 70.7551 249.598 72.5054 251.505V251.506C74.2963 253.474 75.6721 255.892 76.6255 258.772L76.6265 258.775C77.5986 261.652 78.0894 264.93 78.0894 268.614C78.0893 272.297 77.5883 275.584 76.5962 278.481L76.5952 278.483C75.6212 281.365 74.2562 283.754 72.5073 285.66L72.5054 285.661C70.6915 287.652 68.5453 289.149 66.062 290.154L66.061 290.155C63.5988 291.16 60.7674 291.668 57.5581 291.668C54.4331 291.668 51.6001 291.15 49.0532 290.124H49.0542C46.5279 289.098 44.3824 287.61 42.6108 285.662C40.9501 283.835 39.6362 281.612 38.6763 278.983L38.4897 278.452C37.5381 275.596 37.0571 272.319 37.0571 268.614C37.0571 264.97 37.5382 261.722 38.4907 258.864V258.863C39.444 255.983 40.8303 253.532 42.644 251.502L42.6431 251.501C44.3712 249.577 46.5151 248.102 49.0815 247.075L49.0806 247.074C51.6708 246.046 54.4952 245.53 57.5581 245.53ZM57.5884 249.726C52.8582 249.726 49.0921 251.381 46.3521 254.711C43.6391 258.013 42.3179 262.671 42.3179 268.614C42.3179 274.618 43.6697 279.3 46.4478 282.583L46.4487 282.584C49.2275 285.847 52.9589 287.471 57.5884 287.471C62.2179 287.471 65.94 285.847 68.6987 282.583C71.4768 279.3 72.8286 274.618 72.8286 268.614C72.8286 262.856 71.5781 258.304 69.0142 255.023L68.7622 254.71C66.0231 251.382 62.279 249.726 57.5884 249.726Z" fill="white" stroke="black"/>
<path d="M87.0301 246.462V266.705L87.8455 266.044L97.6365 258.104V261.769L87.2176 270.128L87.0301 270.278V286.366H109.641V290.716H82.0125V273.901L81.1961 274.568L76.3602 278.52V274.861L81.825 270.483L82.0125 270.333V246.462H87.0301Z" fill="white" stroke="black"/>
<path d="M132.374 245.53C135.56 245.53 138.401 246.058 140.904 247.102L140.908 247.104C143.436 248.131 145.571 249.599 147.322 251.507C149.112 253.475 150.487 255.893 151.44 258.772L151.441 258.775C152.413 261.652 152.905 264.93 152.905 268.614C152.905 272.297 152.404 275.584 151.412 278.481L151.411 278.483C150.437 281.366 149.071 283.754 147.322 285.66L147.321 285.661C145.507 287.652 143.361 289.149 140.878 290.154L140.877 290.155C138.414 291.16 135.583 291.668 132.374 291.668C129.249 291.668 126.416 291.15 123.869 290.124H123.87C121.343 289.098 119.197 287.611 117.426 285.662C115.655 283.714 114.279 281.315 113.305 278.455H113.306C112.354 275.598 111.873 272.32 111.873 268.614C111.873 264.97 112.354 261.722 113.306 258.864V258.863C114.26 255.983 115.646 253.532 117.46 251.502L117.459 251.501C119.187 249.577 121.331 248.102 123.897 247.075L123.896 247.074C126.486 246.046 129.311 245.53 132.374 245.53ZM132.404 249.726C127.674 249.726 123.908 251.381 121.168 254.711C118.455 258.013 117.134 262.671 117.134 268.614C117.134 274.618 118.485 279.3 121.263 282.583L121.264 282.584C124.043 285.847 127.775 287.471 132.404 287.471C137.034 287.471 140.756 285.847 143.514 282.583C146.292 279.3 147.644 274.618 147.644 268.614C147.644 262.856 146.394 258.304 143.83 255.023L143.578 254.71C140.839 251.382 137.095 249.726 132.404 249.726Z" fill="white" stroke="black"/>
<path d="M180.616 246.462L200.048 283.153L200.989 282.918V246.462H205.612L205.611 290.715H198.967L177.651 250.499L176.709 250.734V290.715H172.087V246.462H180.616Z" fill="white" stroke="black"/>
<path d="M232.774 246.462L248.883 290.715H243.539L239.219 278.437L239.102 278.103H218.82L218.703 278.437L214.383 290.715H209.343L225.451 246.462H232.774ZM228.49 251.051L220.528 273.268L220.288 273.936H237.603L237.364 273.268L229.432 251.052L228.962 249.736L228.49 251.051Z" fill="white" stroke="black"/>
<path d="M257.973 246.451V273.334C257.973 275.801 258.136 277.779 258.472 279.25L258.473 279.257C258.831 280.73 259.422 282.072 260.247 283.278V283.279C261.193 284.678 262.475 285.73 264.077 286.435L264.079 286.436C265.696 287.138 267.611 287.48 269.809 287.48C272.024 287.479 273.938 287.148 275.536 286.467L275.542 286.465C277.144 285.76 278.433 284.697 279.399 283.28L279.4 283.281C280.228 282.071 280.809 280.695 281.146 279.16C281.502 277.612 281.675 275.718 281.675 273.486V246.451H286.693V273.029C286.693 276.276 286.332 279.094 285.62 281.488V281.491C284.975 283.702 283.937 285.553 282.512 287.058L282.222 287.354C280.716 288.84 278.958 289.924 276.943 290.609C274.919 291.297 272.544 291.647 269.809 291.647C267.015 291.646 264.602 291.277 262.561 290.551C260.518 289.824 258.812 288.759 257.431 287.358V287.357C255.948 285.856 254.848 284.062 254.134 281.967L253.997 281.544C253.307 279.256 252.956 276.421 252.956 273.03V246.451H257.973Z" fill="white" stroke="black"/>
<path d="M300.912 246.462V270.847L301.778 269.917L323.603 246.462H329.514L310.107 266.891L309.791 267.223L310.094 267.566L330.513 290.716H324.035L306.283 270.733L305.92 270.324L305.545 270.723L301.047 275.525L300.912 275.67V290.715H295.895V246.462H300.912Z" fill="white" stroke="black"/>
<path d="M346.692 245.53C349.878 245.53 352.719 246.058 355.222 247.102L355.226 247.104C357.753 248.131 359.889 249.598 361.639 251.505V251.506C363.43 253.474 364.806 255.892 365.759 258.772L365.76 258.775C366.732 261.652 367.223 264.93 367.223 268.614C367.223 272.297 366.722 275.584 365.73 278.481L365.729 278.483C364.755 281.365 363.39 283.754 361.641 285.66L361.639 285.661C359.825 287.652 357.679 289.149 355.196 290.154L355.195 290.155C352.733 291.16 349.901 291.668 346.692 291.668C343.567 291.668 340.734 291.15 338.187 290.124H338.188C335.662 289.098 333.516 287.61 331.745 285.662C330.084 283.835 328.77 281.612 327.81 278.983L327.624 278.452C326.672 275.596 326.191 272.319 326.191 268.614C326.191 264.97 326.672 261.722 327.625 258.864V258.863C328.578 255.983 329.964 253.532 331.778 251.502L331.777 251.501C333.505 249.577 335.649 248.102 338.215 247.075L338.214 247.074C340.805 246.046 343.629 245.53 346.692 245.53ZM346.722 249.726C341.992 249.726 338.226 251.381 335.486 254.711C332.773 258.013 331.452 262.671 331.452 268.614C331.452 274.618 332.804 279.3 335.582 282.583L335.583 282.584C338.361 285.847 342.093 287.471 346.722 287.471C351.352 287.471 355.074 285.847 357.833 282.583C360.611 279.3 361.962 274.618 361.962 268.614C361.962 262.856 360.713 258.304 358.149 255.023L357.896 254.71C355.157 251.382 351.413 249.726 346.722 249.726Z" fill="white" stroke="black"/>
<path d="M370.683 246.439L380.1 283.687L381.07 283.685L390.335 246.439H395.664L405.021 284.05H405.992L415.348 246.439H420.207L408.706 290.692H402.704L393.287 253.506L392.317 253.508L383.111 290.692H377.262L365.552 246.439H370.683Z" fill="white" stroke="black"/>
<path d="M455.5 246.462V250.811H431.703V264.21H455.5V268.56H431.703V286.366H455.5V290.715H426.686V246.462H455.5Z" fill="white" stroke="black"/>
</g>
<defs>
<filter id="filter0_d_2_26" x="0" y="0.000110626" width="461.739" height="226.086" filterUnits="userSpaceOnUse" color-interpolation-filters="sRGB">
<feFlood flood-opacity="0" result="BackgroundImageFix"/>
<feColorMatrix in="SourceAlpha" type="matrix" values="0 0 0 0 0 0 0 0 0 0 0 0 0 0 0 0 0 0 127 0" result="hardAlpha"/>
<feOffset dx="8" dy="8"/>
<feComposite in2="hardAlpha" operator="out"/>
<feColorMatrix type="matrix" values="0 0 0 0 0 0 0 0 0 0 0 0 0 0 0 0 0 0 1 0"/>
<feBlend mode="normal" in2="BackgroundImageFix" result="effect1_dropShadow_2_26"/>
<feBlend mode="normal" in="SourceGraphic" in2="effect1_dropShadow_2_26" result="shape"/>
</filter>
<filter id="filter1_d_2_26" x="6.21362" y="245.03" width="452.786" height="47.1375" filterUnits="userSpaceOnUse" color-interpolation-filters="sRGB">
<feFlood flood-opacity="0" result="BackgroundImageFix"/>
<feColorMatrix in="SourceAlpha" type="matrix" values="0 0 0 0 0 0 0 0 0 0 0 0 0 0 0 0 0 0 127 0" result="hardAlpha"/>
<feOffset dx="3"/>
<feComposite in2="hardAlpha" operator="out"/>
<feColorMatrix type="matrix" values="0 0 0 0 0 0 0 0 0 0 0 0 0 0 0 0 0 0 1 0"/>
<feBlend mode="normal" in2="BackgroundImageFix" result="effect1_dropShadow_2_26"/>
<feBlend mode="normal" in="SourceGraphic" in2="effect1_dropShadow_2_26" result="shape"/>
</filter>
</defs>
</svg>
