<svg width="1644" height="1644" viewBox="0 0 1644 1644" fill="none" xmlns="http://www.w3.org/2000/svg">
<path d="M850.2 1494.67C494.19 1494.67 205.725 1206.21 205.725 850.2C205.725 782.034 216.26 716.657 235.78 654.998L264.905 705.813C290.622 750.74 332.761 783.893 382.646 798.146L562.045 849.27C615.338 864.453 651.9 913.098 651.9 968.56V1092.19C651.9 1126.27 671.11 1157.26 701.475 1172.44C731.84 1187.62 751.05 1218.6 751.05 1252.69V1346.88C751.05 1396.14 798.146 1431.47 845.552 1418.14C894.817 1404.2 933.238 1365.47 947.181 1316.51L951.829 1299.78C966.081 1249.9 999.235 1207.76 1044.16 1182.04L1072.67 1165.62C1119.14 1139.28 1147.65 1089.71 1147.65 1036.42V1010.7C1147.65 971.349 1131.85 933.548 1103.96 905.662L1091.88 893.578C1063.99 865.692 1026.19 849.89 986.841 849.89L853.298 850.2C818.906 850.2 784.823 841.215 754.768 824.173L647.872 763.134C634.549 755.388 624.324 742.994 619.366 728.431C609.451 698.686 622.775 666.463 650.97 652.52L669.251 643.224C689.701 632.999 713.559 631.14 735.248 638.577L807.132 662.435C832.539 670.8 860.425 661.195 874.987 639.196C889.55 617.507 888.001 588.692 871.269 568.552L829.131 518.047C798.146 480.866 798.456 426.644 830.06 390.082L878.706 333.381C905.972 301.467 910.31 255.92 889.55 219.668L882.114 206.655C1110.16 217.809 1307.22 347.943 1412.57 536.018L1333.56 567.622C1284.91 587.143 1259.81 641.365 1276.24 690.94L1328.6 848.031C1339.44 880.255 1365.78 904.733 1398.62 912.788L1488.79 935.407C1447.27 1251.14 1177.09 1494.67 850.2 1494.67ZM850.2 1643.4C1288.32 1643.4 1643.4 1288.32 1643.4 850.2C1643.4 412.081 1288.32 57 850.2 57C412.081 57 57 412.081 57 850.2C57 1288.32 412.081 1643.4 850.2 1643.4Z" fill="black"/>
<path d="M793.2 12C1224.69 12.0001 1574.4 361.709 1574.4 793.2C1574.4 1224.69 1224.69 1574.4 793.2 1574.4C361.709 1574.4 12.0001 1224.69 12 793.2C12 361.709 361.709 12 793.2 12ZM814.695 155.608L822.131 168.622L822.137 168.631C840.358 200.451 836.578 240.485 812.598 268.567L763.981 325.234C728.505 366.276 728.197 427.071 762.912 468.729L762.917 468.735L805.039 519.22V519.221C818.394 535.297 819.599 558.269 808.024 575.507L808.003 575.54L807.981 575.572C796.444 593.001 774.22 600.732 753.884 594.036L682.027 570.188C657.233 561.721 630.09 563.889 606.885 575.491L606.849 575.51L606.812 575.527L588.57 584.803C555.037 601.434 539.19 639.848 550.982 675.227L550.994 675.263L551.007 675.299C556.909 692.636 569.046 707.325 584.841 716.508L584.881 716.531L584.922 716.555L691.817 777.594L691.833 777.603L691.85 777.612C723.706 795.675 759.828 805.2 796.299 805.2H796.326L929.848 804.89C965.979 804.891 1000.73 819.406 1026.39 845.063L1038.48 857.147C1064.14 882.807 1078.65 917.565 1078.65 953.699V979.416C1078.65 1028.44 1052.42 1074 1009.75 1098.18L1009.71 1098.2L1009.68 1098.22L981.172 1114.64C933.556 1141.91 898.404 1186.59 883.29 1239.49L883.278 1239.53L883.267 1239.57L878.64 1256.23C865.827 1301.22 830.511 1336.8 785.283 1349.6C745.459 1360.77 706.05 1331.1 706.05 1289.88V1195.69C706.05 1157.05 684.267 1121.92 649.842 1104.7C623.538 1091.55 606.9 1064.72 606.9 1035.19V911.561C606.9 850.765 566.808 797.388 508.333 780.729H508.334L328.934 729.605C282.076 716.215 242.488 685.073 218.319 642.852L218.316 642.846L189.19 592.031L175.593 568.307L167.34 594.377C147.455 657.188 136.725 723.786 136.725 793.2C136.725 1155.84 430.562 1449.67 793.2 1449.67C1126.18 1449.67 1401.39 1201.6 1443.69 879.972L1445.08 869.369L1434.71 866.768L1344.54 844.149L1344.48 844.134L1343.14 843.792C1314.97 836.4 1292.38 815.152 1282.97 787.203L1230.62 630.146C1216.21 586.594 1238.27 538.915 1281.02 521.759L1360.02 490.16L1372.72 485.082L1366.04 473.154C1258.75 281.614 1058.03 149.033 825.7 137.669L803.832 136.6L814.695 155.608Z" fill="var(--main)" stroke="black" stroke-width="24"/>
</svg>
